<?xml version="1.0" encoding="UTF-8"?> <svg xmlns="http://www.w3.org/2000/svg" width="90" height="43" viewBox="0 0 90 43" fill="none"><path d="M45.4985 12.7834H52.5874C53.036 12.7821 53.4023 12.422 53.4122 11.9733C53.4122 10.1602 53.4122 8.34714 53.4122 6.53406V6.32878H55.8571V11.9782C55.8448 13.4312 54.8774 14.7022 53.4798 15.0992C53.1835 15.1816 52.8787 15.2246 52.5714 15.227C45.5206 15.2344 38.4687 15.2344 31.4167 15.227C30.4714 15.227 29.6896 14.7845 29.0713 14.0765C28.6743 13.618 28.4186 13.055 28.3338 12.4539C28.3117 12.2929 28.3006 12.1294 28.3019 11.9672V1.01367H30.7271V11.8725C30.7062 12.2769 30.9643 12.642 31.3528 12.7576C31.4142 12.7748 31.4781 12.7834 31.5433 12.7821C34.765 12.7821 37.9856 12.792 41.2073 12.7821C41.9387 12.8055 42.6431 12.5105 43.1409 11.9758C43.4531 11.6254 43.6412 11.1829 43.6768 10.7158C43.7444 10.2131 43.667 9.70173 43.4543 9.24078C43.163 8.64584 42.6111 8.21931 41.9621 8.08778C41.6204 8.00542 41.2713 7.96117 40.9209 7.95503C39.468 7.9415 38.0151 7.95503 36.5621 7.95503H36.3569V5.50275H36.5265C38.0556 5.50275 39.5835 5.488 41.1139 5.50275C42.117 5.51627 43.0856 5.70926 43.9595 6.24028C44.8163 6.76761 45.4469 7.59487 45.7296 8.5598C45.9484 9.29855 46.0308 10.0717 45.9718 10.84C45.9423 11.4718 45.796 12.0938 45.5391 12.6715C45.5243 12.7084 45.512 12.7453 45.5022 12.7834H45.4985Z" fill="#333333"></path><path d="M58.1223 15.2327V12.7841H61.8013V2.37636H64.2376V12.7841H64.4319C65.2899 12.7841 66.1503 12.7693 67.0095 12.7841C67.4385 12.7964 67.8503 12.3514 67.8491 11.9482C67.8405 8.3786 67.8405 4.80897 67.8491 1.23688V1.01562H70.2977V12.0625C70.2891 12.8001 70.0149 13.5106 69.5257 14.0625C69.082 14.6009 68.4735 14.9795 67.7938 15.1405C67.6069 15.1921 67.4139 15.2216 67.2197 15.2278C64.2389 15.2339 61.2568 15.2339 58.276 15.2278L58.1211 15.2327H58.1223Z" fill="#333333"></path><path d="M25.8292 18.1988H28.2729V26.7332C28.2901 27.7842 28.0848 28.8265 27.6706 29.7939C27.1347 31.0391 26.1107 32.0102 24.8385 32.4798C24.1919 32.7207 23.5122 32.8657 22.8238 32.9087C21.7704 33.0059 20.7096 32.8928 19.7004 32.5769C18.4515 32.197 17.4042 31.339 16.7859 30.191C16.3926 29.4645 16.1492 28.6667 16.0705 27.8444C16.0287 27.4461 16.0042 27.0454 16.0029 26.6447V18.1914H18.422V26.4382C18.4085 27.0884 18.5056 27.7375 18.7084 28.3558C19.1509 29.6157 20.0126 30.395 21.3217 30.6458C22.149 30.8179 23.0082 30.7244 23.7789 30.379C24.5582 30.025 25.1642 29.3748 25.4642 28.5733C25.71 27.9538 25.8329 27.2925 25.8256 26.6263V18.4127L25.828 18.1988H25.8292Z" fill="#333333"></path><path d="M41.3019 32.4392H38.8607V32.2413C38.8607 30.3077 38.8693 28.3754 38.8607 26.4431C38.8607 25.7645 38.7255 25.1155 38.2903 24.5562C37.9609 24.1321 37.4778 23.8556 36.9456 23.788C36.4588 23.6982 35.9573 23.7388 35.4914 23.9035C34.8178 24.1543 34.32 24.7332 34.1725 25.4363C34.0852 25.7928 34.0397 26.1579 34.0385 26.5254C34.0262 28.4295 34.0385 30.3347 34.0385 32.2413V32.4392H31.5825C31.5825 32.3875 31.5752 32.3359 31.5752 32.2843C31.5752 30.2106 31.5506 28.1357 31.5838 26.0632C31.6034 24.941 31.9206 23.8863 32.6532 23.0025C33.2297 22.3215 34.0102 21.8421 34.8793 21.6369C35.5849 21.4611 36.3162 21.4082 37.0402 21.4807C38.2129 21.5791 39.2737 21.9724 40.0924 22.8661C40.6197 23.4585 40.9799 24.1789 41.1372 24.9557C41.2687 25.6158 41.3253 26.2882 41.3056 26.9606V32.4416L41.3019 32.4392Z" fill="#333333"></path><path d="M74.9971 32.4377H72.5486V32.2385C72.5486 30.2472 72.5621 28.2559 72.5486 26.2621C72.5486 25.516 72.3273 24.8215 71.7459 24.2966C71.2788 23.875 70.7133 23.7435 70.0975 23.7496C69.4485 23.7496 68.8732 23.9401 68.4172 24.4208C68.0632 24.7994 67.8444 25.2837 67.7927 25.7987C67.7448 26.2572 67.7227 26.7182 67.7264 27.1791V32.4389H65.2618V32.2693C65.2618 30.2767 65.2421 28.2866 65.2692 26.2928C65.2839 25.1632 65.5359 24.0803 66.2353 23.1559C66.8204 22.3938 67.6501 21.8579 68.5843 21.6378C69.2961 21.462 70.0324 21.4092 70.7613 21.4817C71.7336 21.5628 72.642 21.8566 73.4053 22.497C74.0396 23.0305 74.5018 23.741 74.7329 24.5363C74.9234 25.1976 75.0131 25.8823 74.9984 26.5706C74.9898 28.4587 74.9984 30.348 74.9984 32.2361L74.9959 32.4401L74.9971 32.4377Z" fill="#333333"></path><path d="M16 15.2011V12.7587H16.1918C17.7701 12.7587 19.3484 12.7784 20.9254 12.7415C21.7244 12.7243 22.4374 12.4342 22.9254 11.7458C23.1503 11.4188 23.2806 11.0366 23.3027 10.6408C23.347 10.0372 23.2745 9.45211 22.9131 8.93707C22.5578 8.43555 22.0108 8.10367 21.4012 8.02254C20.9611 7.95739 20.5174 7.92666 20.0736 7.92789C18.7829 7.9156 17.4935 7.92789 16.2053 7.92789H16.0098V5.50266C16.0627 5.50266 16.1155 5.49528 16.1672 5.49528C17.7996 5.49528 19.4307 5.47316 21.0643 5.50757C22.2874 5.53216 23.4011 5.91444 24.3009 6.7835C24.8405 7.31328 25.2215 7.9832 25.4022 8.71704C25.5952 9.47178 25.6518 10.2548 25.5706 11.0292C25.5202 11.693 25.3383 12.3395 25.0335 12.9308C24.5307 13.8785 23.674 14.5878 22.65 14.9061C22.0268 15.1114 21.3753 15.2122 20.7189 15.2036H16.2151L16 15.2011Z" fill="#333333"></path><path d="M74.987 1V15.2244H72.5605V1H74.987Z" fill="#333333"></path><path d="M44.709 21.6748H47.1367V32.4046H44.709V21.6748Z" fill="#333333"></path><path d="M45.91 20.8188C45.1835 20.8151 44.5972 20.2238 44.5996 19.4974C44.5996 19.4949 44.5996 19.4937 44.5996 19.4912C44.5996 18.7721 45.181 18.1883 45.9001 18.187C45.9038 18.187 45.9075 18.187 45.91 18.187C46.6192 18.1674 47.2105 18.7266 47.2301 19.4359C47.2301 19.458 47.2301 19.4802 47.2301 19.5011C47.2387 20.2189 46.6647 20.8089 45.9456 20.8188C45.9333 20.8188 45.921 20.8188 45.9087 20.8188H45.91Z" fill="#333333"></path><path d="M50.7129 4.98188C49.9901 4.97204 49.4112 4.37833 49.421 3.65433C49.4309 2.93155 50.0246 2.35259 50.7486 2.36243C51.4664 2.37226 52.0429 2.9586 52.0405 3.67645C52.0503 4.38694 51.4824 4.97204 50.7707 4.98188C50.751 4.98188 50.7314 4.98188 50.7129 4.98188Z" fill="#333333"></path><path d="M55.9363 3.68321C55.9363 4.40476 55.3525 4.99109 54.6309 4.99109C54.6235 4.99109 54.6162 4.99109 54.6088 4.99109C53.8762 4.97143 53.2972 4.36174 53.3169 3.62913C53.3169 3.62667 53.3169 3.62421 53.3169 3.62175C53.3538 2.88914 53.9782 2.32616 54.7096 2.36304C55.4053 2.40361 55.9449 2.98502 55.9351 3.68198L55.9363 3.68321Z" fill="#333333"></path><path d="M42.7217 40.5992V37.0947H45.276V37.5372H43.2109V38.5833H45.056V39.0688H43.1962V40.062C43.1962 40.1751 43.2822 40.153 43.3437 40.153H45.3055V40.5955L42.7217 40.6004V40.5992Z" fill="#333333"></path><path d="M31.2809 37.5367V38.5828H33.1358C33.1444 38.7192 33.1444 38.8569 33.1358 38.9946C33.1358 39.0253 33.0461 39.0708 32.9969 39.0708H31.292V40.1488H33.3669V40.5913H30.7979V37.0967H33.3288V37.5392L31.2797 37.5367H31.2809Z" fill="#333333"></path><path d="M45.8872 40.0653L46.1822 39.7026C46.2867 39.7838 46.3838 39.8673 46.4908 39.9386C46.8509 40.2029 47.3168 40.273 47.7384 40.1279C47.9388 40.0689 48.0752 39.8833 48.0728 39.6756C48.0924 39.4789 47.9683 39.2958 47.7777 39.2405C47.4827 39.1458 47.1877 39.0794 46.8927 38.9774C46.6924 38.9184 46.5043 38.825 46.3347 38.7021C45.8282 38.2817 45.9671 37.4692 46.5928 37.1668C47.2344 36.9013 47.972 37.0352 48.4796 37.511L48.224 37.8453C47.983 37.7347 47.7618 37.6167 47.5282 37.5294C47.3168 37.4532 47.0857 37.4581 46.878 37.5429C46.6788 37.6007 46.5362 37.7777 46.524 37.9854C46.5067 38.171 46.6174 38.3456 46.7919 38.4083C47.0599 38.5029 47.3352 38.5754 47.6044 38.6603C47.7396 38.6971 47.8724 38.7426 48.0015 38.7979C48.353 38.959 48.5767 39.2196 48.5718 39.624C48.5927 40.0173 48.3592 40.3799 47.9916 40.5225C47.334 40.7905 46.7108 40.67 46.1331 40.2791C46.0569 40.2177 45.9806 40.1464 45.8848 40.0665L45.8872 40.0653Z" fill="#333333"></path><path d="M38.734 37.5431H37.5908V37.1006H40.375V37.5431H39.2478V40.6038H38.7328V37.5431H38.734Z" fill="#333333"></path><path d="M57.4697 42.632V42.1698C57.8741 42.0752 57.9946 41.8441 57.9909 41.4889C57.9811 40.4883 57.9909 39.4877 57.9909 38.4859V38.3027H58.4715C58.4715 38.3482 58.4801 38.3937 58.4801 38.4416V41.6573C58.4666 42.2043 58.0167 42.6382 57.4697 42.632Z" fill="#333333"></path><path d="M74.5205 37.0908H74.9839V40.6027H74.5205V37.0908Z" fill="#333333"></path><path d="M41.6509 40.6066H41.1875V37.0947H41.6509V40.6066Z" fill="#333333"></path><path d="M52.3426 37.5785C52.2086 37.576 52.0968 37.4728 52.0869 37.3375C52.0857 37.2023 52.1939 37.0917 52.3291 37.0892H52.3315C52.4655 37.0819 52.5786 37.1839 52.586 37.3179C52.586 37.3203 52.586 37.3228 52.586 37.3252C52.5811 37.4605 52.4754 37.5686 52.3414 37.5772L52.3426 37.5785Z" fill="#333333"></path><path d="M64.7305 37.9692C64.6026 37.9778 64.4908 37.8795 64.4834 37.7516C64.4834 37.7455 64.4834 37.7393 64.4834 37.7332C64.4859 37.598 64.5928 37.4873 64.728 37.4824C64.8608 37.4861 64.9665 37.5931 64.9689 37.7258C64.98 37.8487 64.889 37.9581 64.7649 37.9692C64.7538 37.9692 64.7428 37.9692 64.7317 37.9692H64.7305Z" fill="#333333"></path><path d="M55.5985 41.3996C55.4682 41.4107 55.3526 41.3123 55.3428 41.182C55.3428 41.1784 55.3428 41.1734 55.3428 41.1698C55.3477 41.0358 55.4522 40.9264 55.5862 40.9141C55.7201 40.9128 55.8308 41.0198 55.832 41.155C55.832 41.155 55.832 41.155 55.832 41.1562C55.848 41.2742 55.7656 41.3824 55.6476 41.3984C55.6316 41.4008 55.6157 41.4008 55.5985 41.3984V41.3996Z" fill="#333333"></path><path d="M53.0445 37.5786C52.9092 37.5786 52.7986 37.4704 52.7949 37.3352C52.8011 37.2 52.9166 37.0955 53.0518 37.1029C53.1735 37.1091 53.2719 37.2025 53.2829 37.3229C53.2866 37.4594 53.1797 37.5737 53.0445 37.5786Z" fill="#333333"></path><path d="M63.7877 37.7356C63.7803 37.6029 63.8824 37.4898 64.0139 37.4824C64.0164 37.4824 64.0188 37.4824 64.0213 37.4824C64.1553 37.4923 64.261 37.6004 64.2671 37.7344C64.2671 37.8623 64.1651 37.9667 64.0373 37.968C64.0348 37.968 64.0336 37.968 64.0311 37.968C63.9156 37.9864 63.8062 37.9077 63.7877 37.7922C63.7853 37.7737 63.784 37.7553 63.7865 37.7369L63.7877 37.7356Z" fill="#333333"></path><path d="M56.0576 41.1525C56.0589 41.0222 56.1633 40.9165 56.2936 40.9141C56.4264 40.9264 56.5309 41.0308 56.5432 41.1636C56.5382 41.2988 56.4252 41.4045 56.2899 41.3996C56.2899 41.3996 56.2887 41.3996 56.2875 41.3996C56.1707 41.4107 56.0675 41.3258 56.0552 41.2091C56.0539 41.1906 56.0552 41.1722 56.0576 41.1538V41.1525Z" fill="#333333"></path><path d="M61.8327 25.761C61.5549 24.5244 60.853 23.4242 59.8475 22.6523C58.8162 21.8607 57.5538 21.4304 56.2545 21.4268C55.812 21.4858 55.3621 21.5153 54.927 21.6099C53.7101 21.8545 52.6148 22.5134 51.8294 23.4759C50.7083 24.8403 50.3224 26.4124 50.6346 28.1518C50.846 29.3773 51.4815 30.4897 52.4305 31.2936C53.4827 32.2082 54.7242 32.6212 56.0972 32.6704C56.3934 32.6691 56.6884 32.6495 56.9822 32.6114C57.4862 32.5622 57.9816 32.4393 58.4499 32.245C60.3306 31.4977 61.6581 29.7903 61.9187 27.783C62.0158 27.1094 61.9863 26.4247 61.8315 25.7622L61.8327 25.761ZM59.008 29.0233C58.5568 29.81 57.7714 30.3484 56.8741 30.4824C55.7333 30.6753 54.7401 30.3766 53.9326 29.5396C53.4655 29.0602 53.1594 28.4468 53.0561 27.7855C53.0143 27.5359 52.9897 27.2839 52.9578 27.032C52.9922 26.0498 53.2835 25.1771 53.9903 24.474C54.4906 23.9811 55.147 23.6774 55.8477 23.616C56.6049 23.5189 57.3719 23.6983 58.0086 24.1224C58.7929 24.6362 59.3202 25.4598 59.4603 26.3866C59.6447 27.2913 59.4837 28.2317 59.0092 29.0233H59.008Z" fill="#333333"></path><path d="M73.3626 37.094V40.1474H70.0216C70.1543 39.9691 70.26 39.8007 70.3916 39.6544C70.5169 39.518 70.5551 39.3213 70.4874 39.148C70.2785 38.4105 69.6971 38.1683 69.0444 38.3318C68.5871 38.4474 68.3683 38.7965 68.2638 39.2402C68.2257 39.3693 68.2589 39.5106 68.3511 39.609C68.4888 39.7725 68.608 39.9507 68.7493 40.1449H65.3948V38.3146C65.3776 38.3097 65.3604 38.3048 65.3432 38.3011C64.9081 38.3011 64.4729 38.2913 64.0378 38.3011C63.8374 38.3072 63.6395 38.3404 63.4478 38.3982C63.0372 38.5236 62.752 38.8973 62.741 39.3262C62.709 39.62 62.7914 39.915 62.9696 40.1511H59.9076V37.0965H59.4258V40.596H73.8567V37.0928H73.3613L73.3626 37.094ZM64.897 40.183C64.5159 40.1707 64.1349 40.1388 63.7563 40.0871C63.3802 40.0195 63.2154 39.7393 63.2425 39.3496C63.2671 39.0398 63.5215 38.7989 63.8325 38.7915C64.1816 38.7645 64.5332 38.7915 64.8958 38.7915V40.183H64.897ZM69.9835 39.3176C69.7929 39.5782 69.595 39.8351 69.3935 40.1117C69.1894 39.8401 69.0013 39.5967 68.8206 39.3459C68.7899 39.2955 68.7813 39.2341 68.7973 39.1763C68.8895 38.9231 69.139 38.762 69.4082 38.7842C69.6676 38.7866 69.9011 38.944 69.9982 39.1849C70.0105 39.2291 70.0056 39.2771 69.9835 39.3176Z" fill="#333333"></path><path d="M56.5489 38.3037V40.1413H53.7033V37.8894C53.6738 37.8845 53.6443 37.8808 53.6148 37.8796C53.2177 37.8796 52.8195 37.8649 52.4249 37.8796C52.1877 37.8857 51.9529 37.9275 51.7292 38.0025C50.9449 38.2975 50.8441 39.2883 51.3457 39.7959C51.6222 40.0627 51.9947 40.204 52.3782 40.1893C52.5945 40.1893 52.8207 40.1979 53.0297 40.1893C53.1772 40.1819 53.246 40.2188 53.2227 40.3761C53.2177 40.4511 53.2177 40.5261 53.2227 40.5998H57.0308V38.3037H56.5489ZM53.2141 39.7369C52.7814 39.6841 52.3413 39.8279 51.9209 39.6337C51.6333 39.4997 51.5202 39.2711 51.5534 38.9121C51.5866 38.6515 51.7833 38.4438 52.0414 38.3959C52.2811 38.3639 52.5232 38.3442 52.7654 38.3381H53.2079L53.2141 39.7369Z" fill="#333333"></path><path d="M36.126 39.2012C36.4211 39.1078 36.673 38.9935 36.8316 38.7464C37.161 38.2805 37.0492 37.6364 36.5833 37.307C36.4383 37.205 36.2699 37.141 36.0941 37.1238C35.5631 37.0648 35.0222 37.0931 34.4851 37.082H34.2109V40.5951H34.6817V39.4151C34.6817 39.3106 34.7137 39.2676 34.8292 39.2676H35.4832C35.5483 39.2725 35.6098 39.3032 35.6528 39.3536C35.9478 39.731 36.2281 40.1157 36.5169 40.4968C36.5489 40.5398 36.6005 40.5939 36.6472 40.5976C36.8181 40.6099 36.989 40.5976 37.1979 40.5976C36.8206 40.1256 36.4801 39.6683 36.1285 39.2012H36.126ZM34.6756 38.8189V37.6462C34.6866 37.6008 34.7211 37.5639 34.7653 37.5504C35.171 37.5356 35.5778 37.5479 35.9822 37.5872C36.3067 37.6192 36.544 37.9081 36.512 38.2313C36.4997 38.3506 36.4518 38.4637 36.3743 38.5559C36.2477 38.7157 36.056 38.8103 35.8519 38.814C35.4684 38.8275 35.0861 38.8152 34.6744 38.8152V38.8177L34.6756 38.8189Z" fill="#333333"></path><path d="M21.3337 39.2008C21.4639 39.148 21.5672 39.1136 21.6631 39.0656C22.1671 38.8001 22.3613 38.1757 22.0958 37.6705C22.0503 37.5844 21.9937 37.5058 21.9261 37.4357C21.6852 37.2046 21.3632 37.078 21.0288 37.0841C20.5347 37.0706 20.0393 37.0841 19.5452 37.0841C19.4984 37.0841 19.4517 37.0841 19.4062 37.0927V40.5984H19.8869V39.4467C19.8869 39.2992 19.9311 39.2598 20.0713 39.2684C20.2507 39.2807 20.4302 39.2807 20.6096 39.2684C20.724 39.2586 20.8334 39.3164 20.8899 39.4159C21.153 39.7786 21.4209 40.1387 21.6914 40.4977C21.7282 40.5444 21.7848 40.6034 21.8389 40.6083C22.0097 40.6218 22.183 40.6083 22.392 40.6083L21.3349 39.2008H21.3337ZM21.0386 38.8099H19.8955V37.5365H20.1389C20.4904 37.5463 20.8457 37.5365 21.1948 37.5746C21.4824 37.6041 21.7049 37.8389 21.7172 38.1277C21.7258 38.4191 21.5377 38.6796 21.2587 38.762C21.1874 38.789 21.1136 38.8075 21.0374 38.8136V38.8087L21.0386 38.8099Z" fill="#333333"></path><path d="M24.7224 37.0205C23.7317 37.0168 22.9265 37.817 22.9229 38.8078C22.9229 38.8189 22.9229 38.8299 22.9229 38.841C22.9229 39.9055 23.6702 40.6688 24.7175 40.67C25.6751 40.7057 26.479 39.9571 26.5146 39.0008C26.5158 38.9541 26.5158 38.9074 26.5146 38.8606C26.5466 37.8773 25.7746 37.0537 24.7913 37.0217C24.7679 37.0217 24.7458 37.0217 24.7224 37.0217V37.0205ZM24.7101 40.1943C23.9898 40.2091 23.4207 39.6326 23.4256 38.8373C23.4305 38.042 23.9505 37.479 24.731 37.4852C25.5116 37.4913 26.0143 38.0531 26.0168 38.8434C26.0192 39.6338 25.439 40.2226 24.7101 40.1943Z" fill="#333333"></path><path d="M30.033 38.1464C30.0011 37.6867 29.8044 37.2614 29.1701 37.1569C28.5801 37.0586 27.9901 37.0856 27.3779 37.0586V40.5987H27.8635V39.4027H28.3724C28.692 39.4236 29.0116 39.3806 29.3139 39.2749C29.786 39.1114 30.0847 38.6455 30.0343 38.1477L30.033 38.1464ZM28.9329 38.9061C28.6047 38.9381 28.274 38.9491 27.9446 38.9417C27.9151 38.9417 27.8586 38.8766 27.8573 38.8434V37.6535C27.8745 37.6019 27.9163 37.5613 27.9692 37.5478C28.1167 37.5343 28.2507 37.5478 28.392 37.5478V37.5343C28.569 37.5478 28.7485 37.5478 28.9243 37.5773C29.4135 37.6597 29.5229 37.951 29.5413 38.2485C29.5401 38.5926 29.2758 38.8791 28.9317 38.9073L28.9329 38.9061Z" fill="#333333"></path><path d="M18.6435 38.1007C18.6103 37.5684 18.1813 37.1468 17.649 37.1247C17.1094 37.0903 16.5649 37.1247 16.0117 37.1247V40.6119H16.4837V39.4122H16.6681C17.0246 39.4122 17.3811 39.3889 17.7351 39.3385C18.3595 39.2008 18.6803 38.746 18.6435 38.1007ZM17.6638 38.8726C17.2753 38.9279 16.8845 38.9636 16.4923 38.9783V37.5782C16.8611 37.5623 17.2299 37.566 17.5986 37.5869C17.9158 37.6164 18.1579 37.8843 18.1542 38.2039C18.185 38.5198 17.9735 38.8075 17.6625 38.8726H17.6638Z" fill="#333333"></path></svg> 