<svg xmlns="http://www.w3.org/2000/svg" id="Layer_1" data-name="Layer 1" viewBox="0 0 90 43"><defs><style> .cls-1 { fill: #000; stroke-width: 0px; } </style></defs><path class="cls-1" d="M15.2,14.88l1.32,3.74c-2.36,1.04-4.99,1.59-7.76,1.59s-5.4-.55-7.76-1.59l1.32-3.74c1.94.9,4.16,1.39,6.44,1.39s4.43-.49,6.44-1.39M8.76,24.17c-2.29,0-4.43-.49-6.44-1.39l-1.32,3.74c2.36,1.04,4.99,1.59,7.76,1.59s5.4-.55,7.76-1.59l-1.32-3.74c-1.94.9-4.16,1.39-6.44,1.39M75.63,21.26c0,3.26-2.36,6.86-7,6.86h-4.43v-13.23h4.71c4.43,0,6.72,3.12,6.72,6.37M72.58,21.26c0-1.87-1.11-3.53-3.6-3.53h-1.73v7.62h1.39c2.7,0,4.02-2.01,4.02-4.09M49.23,28.12l-2.91-5.54c1.46-.76,2.08-2.08,2.08-3.53,0-2.08-1.46-4.16-4.99-4.16h-5.27v13.23h3.05v-4.92h2.15l2.56,4.92h3.4-.07ZM41.12,20.63v-2.91h1.66c1.52,0,2.43.28,2.43,1.46s-.97,1.46-2.43,1.46h-1.66ZM32.04,14.88h-3.74l-4.71,13.23h3.12l.9-2.63h5.2l.9,2.63h3.12l-4.71-13.23h-.07ZM28.51,22.78l1.66-4.92,1.66,4.92h-3.33ZM58.03,14.88h-3.74l-4.71,13.23h3.12l.9-2.63h5.2l.9,2.63h3.12l-4.71-13.23h-.07ZM54.49,22.78l1.66-4.92,1.66,4.92h-3.33ZM84.22,14.88h-3.74l-4.71,13.23h3.12l.9-2.63h5.2l.9,2.63h3.12l-4.71-13.23h-.07ZM80.69,22.78l1.66-4.92,1.66,4.92h-3.33Z"></path></svg>