<svg xmlns="http://www.w3.org/2000/svg" id="Layer_1" data-name="Layer 1" viewBox="0 0 90 43"><defs><style> .cls-1 { fill: #000; stroke-width: 0px; } </style></defs><g id="Layer_2" data-name="Layer 2"><g id="Layer_1-2" data-name="Layer 1-2"><path class="cls-1" d="M54.42,32.59h-9.27v-1.11c.26,0,.6-.06,1.13-.1.36-.02.71-.08,1.05-.19.29-.11.53-.31.7-.56.16-.3.23-.63.21-.96V13.62c.01-.31-.04-.63-.16-.92-.16-.29-.43-.51-.75-.6-.35-.15-.72-.27-1.1-.36-.35-.09-.71-.16-1.08-.19v-1.14h9.27v1.12c-.36.02-.72.06-1.08.11-.37.06-.73.15-1.08.26-.32.08-.59.3-.74.6-.12.3-.18.63-.17.95v16.03c0,.32.07.64.22.92.16.28.41.51.72.63.32.12.66.21.99.28.38.08.76.14,1.14.16v1.11Z"></path><path class="cls-1" d="M26.22,32.59h-8.58v-1.11c.64-.03,1.27-.14,1.88-.31.5-.16.75-.34.75-.6,0-.11,0-.23-.03-.34,0-.12-.04-.24-.08-.36l-1.7-4.91h-7.22c-.28.72-.49,1.35-.66,1.89s-.32,1.03-.46,1.48c-.11.35-.2.71-.26,1.08-.04.22-.07.45-.07.67,0,.41.31.73.91.96.66.24,1.36.37,2.06.4v1.09h-7.74v-1.06c.32-.03.64-.09.95-.18.33-.08.64-.21.93-.39.34-.24.65-.54.9-.88.25-.39.45-.82.6-1.26,1.04-2.74,2.18-5.82,3.42-9.25,1.26-3.39,2.38-6.44,3.35-9.12h1.17l6.86,18.86c.11.36.27.69.48,1.01.22.28.48.52.78.72.26.17.56.29.86.36.29.08.6.14.9.16l.02,1.07ZM17.94,23.65l-3.12-8.49-3.07,8.49h6.19Z"></path><path class="cls-1" d="M43.43,25.64l-.69,6.95h-16.81v-.55l13.17-20.39h-6.22c-.35.02-.7.06-1.04.13-.66.13-1.38.7-2.19,1.71-.77.96-1.38,2.03-1.81,3.18h-1.07l.63-6.27h15.65v.55l-13.14,20.39h4.97c.89,0,1.78-.07,2.67-.19.67-.02,1.31-.25,1.84-.65.7-.72,1.31-1.53,1.81-2.41.47-.8.88-1.63,1.2-2.5l1.04.02Z"></path><path class="cls-1" d="M85,32.59h-9.28v-1.11l1.13-.1c.36-.02.71-.08,1.05-.19.28-.11.53-.3.69-.56.16-.3.24-.64.22-.98V13.62c.01-.31-.04-.63-.16-.92-.17-.29-.44-.5-.75-.6-.35-.15-.72-.27-1.1-.36-.36-.09-.72-.16-1.08-.19v-1.14h9.28v1.12c-.36.02-.72.06-1.08.11-.37.06-.73.15-1.09.26-.32.09-.59.31-.74.6-.12.3-.18.62-.18.94v16.04c0,.32.06.64.2.92.16.28.41.51.72.63.33.12.66.21,1,.28.38.09.77.14,1.17.17v1.11Z"></path><path class="cls-1" d="M74.02,25.64l-.68,6.95h-16.54v-.55l12.95-20.39h-6.13c-.34.02-.68.06-1.02.13-.64.13-1.36.7-2.16,1.71-.77.96-1.38,2.03-1.81,3.18h-1.01l.62-6.27h15.43v.55l-12.96,20.39h4.89c.88,0,1.75-.07,2.62-.19.65-.03,1.29-.25,1.81-.65.68-.73,1.27-1.54,1.75-2.41.48-.79.88-1.63,1.2-2.5l1.03.02Z"></path></g></g></svg>