<?xml version="1.0" encoding="UTF-8"?> <svg xmlns="http://www.w3.org/2000/svg" width="90" height="43" viewBox="0 0 90 43" fill="none"><g clip-path="url(#clip0_157_185)"><path d="M43.4289 26.4716C43.4289 25.3878 43.4214 25.1834 43.4139 24.9472C43.4064 24.6453 43.3033 24.5272 43.0896 24.5047C43.0014 24.4972 42.8983 24.4897 42.8158 24.4822C42.7052 24.4747 42.6846 24.4447 42.6846 24.4091C42.6846 24.3509 42.7427 24.3359 42.8327 24.3359C43.2827 24.3359 43.6502 24.3584 44.0121 24.3584C44.4996 24.3584 44.9327 24.3359 45.2215 24.3359C46.7777 24.3359 47.0721 25.0578 47.0721 25.4703C47.0721 26.0666 46.6596 26.4509 46.174 26.7003C46.9483 26.9366 47.6027 27.4072 47.6027 28.2997C47.6027 29.1172 46.8358 29.9291 45.3696 29.9291C45.0977 29.9291 44.2277 29.8841 44.0065 29.8841C43.6821 29.8841 43.3352 29.9066 42.9377 29.9066C42.8346 29.9066 42.7821 29.8841 42.7821 29.8335C42.7821 29.7828 42.8196 29.7603 42.9302 29.7603C43.0052 29.7566 43.0783 29.7472 43.1514 29.7303C43.2827 29.7078 43.3652 29.5991 43.3877 29.3253C43.4177 28.9203 43.4327 28.4928 43.4327 27.5647V26.4753L43.4289 26.4716ZM44.704 27.7241C44.704 28.0785 44.6965 28.5941 44.719 28.9691C44.734 29.2053 44.7621 29.2991 44.9102 29.3741C45.0583 29.4566 45.2271 29.4978 45.3958 29.4922C45.7783 29.4922 46.2358 29.2278 46.2358 28.4891C46.2565 28.0672 46.099 27.6547 45.8008 27.3547C45.6133 27.1822 45.3696 27.0828 45.1146 27.0734C44.9927 27.0659 44.869 27.0659 44.7452 27.0734C44.7152 27.0734 44.7002 27.0885 44.7002 27.1241V27.7222L44.704 27.7241ZM44.704 26.5522C44.704 26.6122 44.734 26.6178 44.7696 26.6253C44.9233 26.6459 45.079 26.6553 45.2346 26.6553C45.3902 26.6666 45.5458 26.6253 45.6771 26.5372C45.8552 26.3497 45.9433 26.0947 45.9208 25.8378C45.9208 25.2416 45.6265 24.7391 45.0433 24.7391C44.9533 24.7353 44.8652 24.7484 44.779 24.7766C44.734 24.7916 44.7058 24.8066 44.7058 24.9078V26.5522H44.704Z" fill="#333333"></path><path d="M48.5288 26.4715C48.5288 25.3296 48.5288 25.1177 48.5063 24.8796C48.4913 24.6734 48.4107 24.5402 48.2475 24.5102C48.1744 24.4934 48.1013 24.484 48.0263 24.4802C47.9382 24.4802 47.8857 24.4502 47.8857 24.3996C47.8857 24.3546 47.9232 24.334 48.0488 24.334C48.3432 24.334 49.065 24.3565 49.125 24.3565C49.1907 24.3565 50.0607 24.334 50.3269 24.334C50.4526 24.334 50.49 24.364 50.49 24.4071C50.49 24.4671 50.4244 24.4802 50.3494 24.4802C50.2763 24.4877 50.2313 24.4877 50.1357 24.5027C49.9444 24.5402 49.8713 24.634 49.8563 24.8984C49.8338 25.1346 49.8338 25.3259 49.8338 26.4677V27.7671C49.8338 28.3484 49.8413 29.0346 49.8713 29.344C49.8863 29.5353 49.9313 29.6684 50.1507 29.7209C50.2575 29.7396 50.3663 29.7528 50.4751 29.7584C50.6007 29.7584 50.6288 29.7884 50.6288 29.8315C50.6288 29.869 50.5913 29.9046 50.4751 29.9046C49.9744 29.9046 49.1869 29.8821 49.1213 29.8821C49.0838 29.8821 48.3113 29.9046 48.06 29.9046C47.9419 29.9046 47.8838 29.8896 47.8838 29.8315C47.8838 29.7809 47.9438 29.7584 48.0319 29.7584C48.105 29.7509 48.18 29.7434 48.2607 29.7284C48.4163 29.7059 48.4669 29.5446 48.4894 29.3328C48.5194 29.0234 48.5344 28.4928 48.5344 27.7709V26.4715H48.5288Z" fill="#333333"></path><path d="M51.7052 24.578C51.7127 24.3568 51.7427 24.2236 51.8308 24.2236C51.8908 24.2236 51.9264 24.2461 52.1177 24.3999C52.427 24.6586 52.8114 25.028 54.4989 26.5749C55.2508 27.2686 55.7589 27.7618 55.9577 27.938L55.9127 25.1743C55.8977 24.7618 55.8621 24.5705 55.5658 24.518C55.4589 24.4993 55.3502 24.4861 55.2414 24.4805C55.1458 24.4805 55.1102 24.443 55.1102 24.4074C55.1102 24.3568 55.1758 24.3343 55.2583 24.3343C55.5527 24.3343 56.0327 24.3568 56.3271 24.3568C56.4902 24.3568 56.8577 24.3343 57.1671 24.3343C57.2777 24.3343 57.3302 24.3568 57.3302 24.3999C57.3302 24.4374 57.2927 24.4805 57.2046 24.4805C57.1427 24.4805 57.0808 24.488 57.0208 24.503C56.7771 24.533 56.7039 24.6586 56.6814 25.1143C56.6214 26.5955 56.6214 28.0693 56.5933 29.5505C56.5933 29.9274 56.5427 30.008 56.4452 30.008C56.3271 30.008 56.0983 29.8318 55.6202 29.4118C55.1196 28.9693 54.4708 28.388 54.0283 27.983C53.6158 27.6061 52.8789 26.9143 52.3408 26.3911L52.4139 28.9037C52.4289 29.4343 52.457 29.633 52.6652 29.7062C52.7927 29.7362 52.9239 29.7549 53.0552 29.7568C53.1658 29.7643 53.2033 29.7868 53.2033 29.8299C53.2033 29.8899 53.1433 29.903 53.027 29.903C52.7702 29.903 52.5339 29.888 52.0764 29.8805C51.9077 29.8805 51.362 29.903 51.0733 29.903C50.9702 29.903 50.9102 29.888 50.9102 29.8299C50.9102 29.7849 50.9477 29.7568 51.0508 29.7568C51.1164 29.7493 51.212 29.7493 51.2945 29.7343C51.5814 29.6893 51.6189 29.5055 51.6414 28.8212C51.677 27.3024 51.662 25.5268 51.707 24.5761L51.7052 24.578Z" fill="#333333"></path><path d="M63.0957 29.1972C63.0957 29.6322 63.0807 29.6772 62.9475 29.7278C62.3644 29.9172 61.755 30.0128 61.1419 30.0072C59.07 30.0072 57.6338 29.079 57.6338 27.1178C57.5963 26.1334 58.1063 25.209 58.9594 24.7159C59.6063 24.3634 60.3375 24.1946 61.0744 24.2303C61.4738 24.2321 61.8732 24.2678 62.2688 24.3334C62.52 24.3634 62.7619 24.414 62.9757 24.4215C63.0413 24.4215 63.0563 24.4515 63.0488 24.5171C62.9757 24.9653 62.9494 25.419 62.9682 25.8709C62.9682 25.989 62.9382 26.0265 62.8875 26.0265C62.8369 26.0265 62.8069 25.9665 62.7994 25.9084C62.79 25.7809 62.7619 25.6571 62.7113 25.5409C62.5707 25.0403 61.9163 24.6859 60.8907 24.6859C60.3938 24.654 59.9082 24.849 59.5707 25.2165C59.2313 25.6759 59.0663 26.2403 59.1057 26.8084C59.1057 28.1265 59.7394 29.5347 61.2863 29.5347C61.4288 29.544 61.5713 29.514 61.6988 29.4465C61.7588 29.3997 61.7925 29.3247 61.7869 29.2478V28.7997C61.7869 28.4978 61.7869 28.2109 61.7794 27.9371C61.7794 27.5171 61.6838 27.3615 61.4325 27.3259C61.3369 27.3109 61.2413 27.3034 61.1157 27.2884C61.0575 27.2884 60.9975 27.2584 60.9975 27.2153C60.9975 27.1721 61.035 27.1421 61.1532 27.1421C61.6313 27.1421 62.1994 27.1646 62.3982 27.1646C62.6625 27.1646 63.1425 27.1421 63.54 27.1421C63.6507 27.1421 63.7088 27.1571 63.7088 27.2153C63.7088 27.2659 63.6638 27.2809 63.5907 27.2884C63.5607 27.2884 63.465 27.3034 63.3919 27.3109C63.2157 27.3484 63.1332 27.429 63.1125 27.6859C63.0975 27.9221 63.09 28.3046 63.09 28.6665V29.1953L63.0957 29.1972Z" fill="#333333"></path><path d="M68.2335 26.6047C68.256 26.6047 68.2785 26.5897 68.2785 26.5541V26.3984C68.2785 25.2566 68.2785 25.1309 68.2635 24.8947C68.2485 24.6809 68.1904 24.5553 67.9467 24.5047C67.8867 24.4972 67.7779 24.4897 67.6879 24.4822C67.5848 24.4822 67.5473 24.4372 67.5473 24.4091C67.5473 24.3641 67.5848 24.3359 67.6954 24.3359C68.1229 24.3359 68.7848 24.3584 68.8598 24.3584C68.9254 24.3584 69.7729 24.3359 70.0898 24.3359C70.2004 24.3359 70.2379 24.3659 70.2379 24.4091C70.2379 24.4466 70.2004 24.4822 70.1273 24.4822C70.0017 24.4972 69.9585 24.4972 69.8685 24.5122C69.6773 24.5422 69.6173 24.6678 69.5948 24.9022C69.5798 25.1384 69.5798 25.3297 69.5798 26.4716V27.7691C69.5798 28.4685 69.5798 29.0141 69.6173 29.3235C69.6398 29.5672 69.6979 29.691 69.9192 29.7285C70.0223 29.7435 70.1704 29.751 70.2435 29.7585C70.3317 29.7585 70.3692 29.796 70.3692 29.8316C70.3692 29.8822 70.3092 29.9047 70.221 29.9047C69.7129 29.9047 68.9685 29.8822 68.8354 29.8822C68.7173 29.8822 68.1417 29.9047 67.7817 29.9047C67.6504 29.9047 67.6185 29.8672 67.6185 29.8241C67.6185 29.7866 67.6635 29.7585 67.7592 29.7585C67.836 29.7528 67.911 29.7435 67.9879 29.7285C68.1642 29.691 68.2092 29.5522 68.2317 29.316C68.2617 29.0066 68.2767 28.5416 68.2767 27.8422V27.2459C68.2767 27.2234 68.2598 27.2028 68.2373 27.201C68.2373 27.201 68.2354 27.201 68.2335 27.201H65.9348C65.9142 27.1972 65.8935 27.2122 65.8898 27.2328C65.8898 27.2366 65.8898 27.2403 65.8898 27.2459V28.0128C65.8898 28.7122 65.8973 29.016 65.9273 29.3328C65.9498 29.5466 66.0154 29.6872 66.2367 29.7228C66.3923 29.7453 66.4654 29.7528 66.546 29.7603C66.6267 29.7603 66.6867 29.7828 66.6867 29.8335C66.6867 29.871 66.6492 29.9066 66.5385 29.9066C66.1185 29.9066 65.2504 29.8841 65.1754 29.8841C65.1098 29.8841 64.3354 29.9066 64.0991 29.9066C64.0185 29.9066 63.936 29.8916 63.936 29.841C63.936 29.7903 63.966 29.7603 64.0616 29.7603C64.1498 29.7528 64.1929 29.7453 64.2904 29.7303C64.4666 29.7078 64.5341 29.5166 64.5473 29.2953C64.5698 28.986 64.5848 28.4703 64.5848 27.771V26.4884C64.5848 25.3466 64.5773 25.1759 64.5623 24.9416C64.5473 24.6828 64.4666 24.5459 64.2079 24.5066C64.1198 24.4916 64.0823 24.4916 64.0016 24.4841C63.8704 24.4766 63.8535 24.4391 63.8535 24.4034C63.8535 24.3528 63.9341 24.3378 64.0166 24.3378C64.4441 24.3378 65.0123 24.3603 65.181 24.3603C65.4604 24.3603 66.0792 24.3378 66.3979 24.3378C66.5292 24.3378 66.5535 24.3678 66.5535 24.4109C66.5535 24.4484 66.5085 24.4841 66.4223 24.4841C66.336 24.4897 66.2498 24.4991 66.1635 24.5141C65.9648 24.5591 65.9273 24.7278 65.9123 24.9416C65.8898 25.1778 65.8898 25.4797 65.8898 26.4003V26.5559C65.8898 26.5934 65.9123 26.6066 65.9348 26.6066H68.2335V26.6047Z" fill="#333333"></path><path d="M72.7227 28.3802C72.6852 28.3802 72.672 28.3952 72.657 28.4327L72.4283 29.0365C72.3664 29.1865 72.3252 29.3458 72.3102 29.5071C72.3102 29.6477 72.3758 29.7133 72.5314 29.7283C72.612 29.7433 72.7302 29.7508 72.7883 29.7583C72.8989 29.7583 72.9195 29.7958 72.9195 29.8315C72.9195 29.8915 72.8595 29.9046 72.7639 29.9046C72.4339 29.9046 72.1808 29.8821 71.7908 29.8821C71.7102 29.8821 71.2227 29.9046 70.8552 29.9046C70.752 29.9046 70.707 29.8746 70.707 29.8315C70.707 29.7715 70.7577 29.7583 70.8477 29.7583C70.9264 29.7527 71.0052 29.7433 71.0839 29.7283C71.3427 29.6777 71.4889 29.449 71.6464 29.0946L73.6133 24.6433C73.7539 24.3264 73.8345 24.2158 73.9152 24.2158C73.9883 24.2158 74.0558 24.3189 74.1795 24.5852C74.3708 24.9977 75.6102 27.8215 76.1108 28.9408C76.3621 29.5165 76.5233 29.6927 76.7802 29.7302C76.8571 29.7471 76.9377 29.7565 77.0164 29.7602C77.1121 29.7602 77.1571 29.7902 77.1571 29.8333C77.1571 29.884 77.1064 29.9065 76.9658 29.9065C76.2439 29.9065 75.4039 29.8915 74.9314 29.884C74.8133 29.884 74.7683 29.8615 74.7683 29.8183C74.7683 29.7752 74.8058 29.7452 74.8714 29.7302C74.952 29.7152 74.982 29.6646 74.9595 29.599L74.4664 28.4271C74.4589 28.4008 74.4345 28.3821 74.4083 28.3821H72.7208L72.7227 28.3802ZM74.1964 27.7915C74.2414 27.7915 74.2414 27.769 74.2339 27.754L73.5852 26.1771C73.5627 26.1265 73.5477 26.1396 73.5345 26.1771L72.9064 27.754C72.8989 27.7765 72.9139 27.7915 72.9364 27.7915H74.1983H74.1964Z" fill="#333333"></path><path d="M79.4215 27.7692C79.4215 28.3448 79.4215 29.0292 79.459 29.3385C79.474 29.5298 79.5246 29.6854 79.7459 29.721C79.8415 29.736 79.9296 29.7435 80.0627 29.7585C80.1809 29.766 80.2109 29.7885 80.2109 29.8392C80.2109 29.8842 80.1734 29.9048 80.0421 29.9048C79.5415 29.9048 78.8252 29.8823 78.709 29.8823C78.5834 29.8823 77.869 29.9048 77.6252 29.9048C77.5071 29.9048 77.4565 29.8898 77.4565 29.8317C77.4565 29.781 77.5165 29.7585 77.6046 29.7585C77.6777 29.751 77.7602 29.7435 77.8409 29.7285C78.004 29.6985 78.0546 29.5373 78.0771 29.3235C78.1071 29.0142 78.1221 28.4835 78.1221 27.7692V24.8798C77.8352 24.8798 77.3777 24.8723 77.0084 24.8948C76.5959 24.9173 76.4327 25.0129 76.3371 25.2698C76.3109 25.3241 76.2902 25.3823 76.2715 25.4385C76.2565 25.4985 76.234 25.5566 76.1834 25.5566C76.1177 25.5566 76.1177 25.4966 76.1234 25.4085C76.1534 25.1066 76.234 24.7091 76.2865 24.4279C76.3015 24.3173 76.324 24.2441 76.3671 24.2441C76.4515 24.2591 76.5359 24.2779 76.6184 24.3023C76.8902 24.3398 77.1621 24.3566 77.4359 24.3529H80.6402C80.7959 24.3548 80.9515 24.3454 81.1053 24.3229C81.1803 24.3041 81.2571 24.2891 81.334 24.2779C81.3996 24.2779 81.4071 24.3229 81.4071 24.5066C81.4071 24.6098 81.3621 25.296 81.3546 25.4798C81.3471 25.5829 81.3246 25.6279 81.2815 25.6279C81.2215 25.6279 81.2084 25.5829 81.2009 25.4966C81.1934 25.416 81.1934 25.386 81.1859 25.3485C81.1559 25.1198 81.0453 24.9435 80.6103 24.9135C80.3665 24.891 79.9821 24.876 79.4234 24.876V27.7654L79.4215 27.7692Z" fill="#333333"></path><path d="M84.9909 27.7692C84.9909 28.3448 84.9909 29.0292 85.0284 29.3385C85.0434 29.5298 85.094 29.6854 85.3153 29.721C85.4109 29.736 85.499 29.7435 85.6322 29.7585C85.7503 29.766 85.7803 29.7885 85.7803 29.8392C85.7803 29.8842 85.7428 29.9048 85.6115 29.9048C85.1109 29.9048 84.3947 29.8823 84.2784 29.8823C84.1528 29.8823 83.4384 29.9048 83.1946 29.9048C83.0765 29.9048 83.0259 29.8898 83.0259 29.8317C83.0259 29.781 83.084 29.7585 83.174 29.7585C83.2471 29.751 83.3296 29.7435 83.4103 29.7285C83.5734 29.6985 83.624 29.5373 83.6465 29.3235C83.6765 29.0142 83.6915 28.4835 83.6915 27.7692V24.8798C83.4046 24.8798 82.9471 24.8723 82.5796 24.8948C82.1671 24.9173 82.004 25.0129 81.9084 25.2698C81.8821 25.3241 81.8615 25.3823 81.8428 25.4385C81.8278 25.4985 81.8053 25.5566 81.7546 25.5566C81.689 25.5566 81.689 25.4966 81.6946 25.4085C81.7246 25.1066 81.8053 24.7091 81.8578 24.4279C81.8728 24.3173 81.8953 24.2441 81.9384 24.2441C82.0228 24.2591 82.1071 24.2779 82.1896 24.3023C82.4615 24.3398 82.7334 24.3566 83.0071 24.3529H86.2115C86.3672 24.3548 86.5228 24.3454 86.6765 24.3229C86.7515 24.3041 86.8284 24.2891 86.9053 24.2779C86.9709 24.2779 86.9784 24.3229 86.9784 24.5066C86.9784 24.6098 86.9334 25.296 86.9278 25.4798C86.9203 25.5829 86.8978 25.6279 86.8547 25.6279C86.7947 25.6279 86.7815 25.5829 86.774 25.4966C86.7665 25.416 86.7665 25.386 86.759 25.3485C86.729 25.1198 86.6184 24.9435 86.1853 24.9135C85.9415 24.891 85.5572 24.876 84.9984 24.876V27.7654L84.9909 27.7692Z" fill="#333333"></path><path d="M87.8999 26.4715C87.8999 25.3296 87.8999 25.1177 87.8774 24.8796C87.8624 24.6734 87.7818 24.5402 87.6186 24.5102C87.5455 24.4934 87.4724 24.484 87.3974 24.4802C87.3093 24.4802 87.2568 24.4502 87.2568 24.3996C87.2568 24.3546 87.2943 24.334 87.4199 24.334C87.7143 24.334 88.4361 24.3565 88.4961 24.3565C88.5618 24.3565 89.4318 24.334 89.698 24.334C89.8236 24.334 89.8611 24.364 89.8611 24.4071C89.8611 24.4671 89.7955 24.4802 89.7205 24.4802C89.6474 24.4877 89.6024 24.4877 89.5068 24.5027C89.3155 24.5402 89.2424 24.634 89.2274 24.8984C89.2049 25.1346 89.2049 25.3259 89.2049 26.4677V27.7671C89.2049 28.3484 89.2124 29.0346 89.2424 29.344C89.2574 29.5353 89.3024 29.6684 89.5218 29.7209C89.6286 29.7396 89.7374 29.7528 89.8461 29.7584C89.9718 29.7584 89.9999 29.7884 89.9999 29.8315C89.9999 29.869 89.9624 29.9046 89.8461 29.9046C89.3455 29.9046 88.558 29.8821 88.4924 29.8821C88.4549 29.8821 87.6824 29.9046 87.4311 29.9046C87.313 29.9046 87.2549 29.8896 87.2549 29.8315C87.2549 29.7809 87.3149 29.7584 87.403 29.7584C87.4761 29.7509 87.5511 29.7434 87.6318 29.7284C87.7874 29.7059 87.838 29.5446 87.8605 29.3328C87.8905 29.0234 87.9055 28.4928 87.9055 27.7709V26.4715H87.8999Z" fill="#333333"></path><path d="M51.5106 19.5837H50.2675C49.9056 19.6043 49.5513 19.4731 49.2869 19.2237C49.0356 18.9556 48.9063 18.5974 48.9269 18.2299V16.3549H48.07C47.3087 16.3549 46.9281 16.8387 46.9281 17.8081C46.9281 18.5524 47.2131 18.9331 47.785 18.9499H48.5425V19.5443C48.5519 20.0487 48.3719 20.5381 48.04 20.9168C47.695 21.3068 47.2112 21.5487 46.6919 21.5937H45.2762C44.5375 21.6443 43.8156 21.3556 43.315 20.8118C42.8762 20.2268 42.6606 19.5049 42.7075 18.7756V17.1237H44.0462V18.7493C44.0106 19.3399 44.1737 19.9249 44.5094 20.4124C44.6837 20.6168 44.9012 20.7818 45.145 20.8962C45.2969 20.9712 45.4637 21.0087 45.6325 21.0087C45.9194 21.0124 46.2025 20.9487 46.4575 20.8231C46.63 20.7406 46.78 20.6168 46.8944 20.4631C47.0687 20.2437 47.1681 19.9737 47.1794 19.6924C46.7519 19.7018 46.3394 19.5368 46.0375 19.2331C45.7094 18.8918 45.5387 18.4268 45.565 17.9543C45.5406 17.3637 45.7525 16.7881 46.1537 16.353C46.5456 15.9387 47.3462 15.7324 47.9819 15.7324H50.1213V18.0162C50.1213 18.5131 50.3406 18.7606 50.7794 18.7606H51.5125V19.5818L51.5106 19.5837ZM45.6362 22.9868C45.6381 23.1312 45.5819 23.27 45.4806 23.3712C45.3794 23.4781 45.2369 23.5362 45.0887 23.5325C44.9406 23.5362 44.7981 23.48 44.6931 23.3768C44.5862 23.2756 44.5281 23.1331 44.5319 22.9868C44.5281 22.8387 44.5862 22.6943 44.6931 22.5912C44.7981 22.4843 44.9406 22.4262 45.0887 22.43C45.2331 22.43 45.3737 22.4862 45.4731 22.5912C45.5781 22.6962 45.6381 22.8387 45.6344 22.9868H45.6362ZM47.1006 22.9868C47.1006 23.1312 47.0462 23.27 46.945 23.3712C46.8437 23.4781 46.7012 23.5362 46.5531 23.5325C46.405 23.5362 46.2625 23.48 46.1575 23.3768C46.0506 23.2756 45.9925 23.1331 45.9962 22.9868C45.9925 22.8387 46.0506 22.6943 46.1575 22.5912C46.2625 22.4843 46.405 22.4262 46.5531 22.43C46.6975 22.43 46.8381 22.4862 46.9375 22.5912C47.0425 22.6962 47.1006 22.8387 47.0987 22.9868H47.1006Z" fill="#333333"></path><path d="M60.7639 19.5836H51.5107V18.7642H54.2614V15.213L54.1245 14.0955L55.6976 13.9961L55.5983 15.1998V17.8324C55.8926 17.3074 56.2901 16.848 56.7645 16.4786C57.2595 16.0174 57.9008 15.7436 58.5776 15.708C59.1364 15.6855 59.6858 15.8411 60.1489 16.1542C60.5464 16.4299 60.7789 16.8874 60.7639 17.3711V19.5836ZM59.427 18.7642V17.523C59.427 16.8292 59.4289 16.503 58.5289 16.4805C58.0058 16.4674 57.417 16.7899 56.7683 17.4124C56.3258 17.778 55.9751 18.2411 55.7445 18.7661H59.427V18.7642Z" fill="#333333"></path><path d="M64.6116 19.584H63.4716C63.1097 19.6028 62.7554 19.4734 62.491 19.224C62.2397 18.9559 62.1103 18.5959 62.131 18.2303V15.1384L61.9697 13.9721L63.4697 13.7246V18.0184C63.4697 18.5153 63.6891 18.7628 64.1279 18.7628H64.6116V19.584Z" fill="#333333"></path><path d="M71.0782 19.584H64.6113V18.7646H67.7763C67.527 18.4328 67.4013 18.024 67.4163 17.6096C67.3976 17.0996 67.5795 16.6009 67.9245 16.2259C68.2601 15.8677 68.7363 15.6746 69.2276 15.6971C69.8182 15.7309 70.3807 15.9577 70.8289 16.3421L70.482 16.7509C70.3339 16.5502 70.107 16.4246 69.8595 16.4021C69.1226 16.4021 68.7551 16.8277 68.7551 17.6809C68.7382 17.9846 68.8507 18.2828 69.0664 18.5003C69.2464 18.6728 69.4882 18.7665 69.7357 18.7609H70.2082L70.9564 18.6371L71.0801 19.5821L71.0782 19.584ZM69.6514 14.2834C69.6514 14.4277 69.5951 14.5665 69.492 14.6677C69.3888 14.7746 69.2463 14.8327 69.1001 14.829C68.9557 14.829 68.817 14.7746 68.7138 14.6734C68.6051 14.5721 68.5451 14.4296 68.5488 14.2815C68.5451 14.1315 68.6051 13.989 68.7138 13.8859C68.8151 13.7827 68.9557 13.7246 69.1001 13.7246C69.2463 13.7246 69.3851 13.7827 69.4864 13.8859C69.5951 13.989 69.6551 14.1334 69.6514 14.2815V14.2834Z" fill="#333333"></path><path d="M87.1751 19.5843H78.625C78.4582 19.5843 78.2913 19.5637 78.13 19.5224C78.0382 20.1187 77.7232 20.6587 77.2488 21.0299C76.72 21.4162 76.0769 21.6112 75.4244 21.5831C74.5638 21.5831 73.4781 21.3187 73.0319 20.7899C72.595 20.1937 72.3813 19.4662 72.4244 18.7293V17.0774H73.7631V18.7031C73.7631 19.4156 73.8813 20.0081 74.2319 20.3906C74.4963 20.7787 74.9369 21.0112 75.4075 21.0112C75.8219 21.0318 76.2138 20.8218 76.4238 20.4656C76.7332 19.9593 76.8813 19.3706 76.8438 18.7762V17.1993L76.6825 15.9955L78.1825 15.748V17.8574C78.1825 18.4612 78.4019 18.7631 78.8407 18.7631H87.1807V19.5824L87.1751 19.5843ZM75.7544 17.1018C75.7544 17.2462 75.6982 17.3868 75.5932 17.4862C75.4882 17.5931 75.3457 17.6512 75.1975 17.6474C75.0532 17.6493 74.9144 17.5931 74.8132 17.4918C74.7044 17.3868 74.6463 17.2406 74.6519 17.0887C74.6519 16.9443 74.7082 16.8037 74.8132 16.7043C74.9144 16.5993 75.0532 16.5412 75.1975 16.5431C75.3457 16.5393 75.49 16.5974 75.5932 16.7043C75.7 16.8093 75.7582 16.9518 75.7544 17.1018Z" fill="#333333"></path><path d="M89.9068 18.2623C89.9255 18.6185 89.7943 18.9673 89.5468 19.2242C89.2805 19.4698 88.928 19.5973 88.5661 19.5785H87.1768V18.7592H87.9043C88.3486 18.7592 88.5699 18.5192 88.5699 18.0392V17.1466L88.4218 15.9804L89.9086 15.7441V18.2623H89.9068ZM89.423 21.0429C89.423 21.1854 89.3649 21.3223 89.2618 21.4217C89.1586 21.5304 89.0161 21.5923 88.8661 21.5885C88.7218 21.5904 88.583 21.5342 88.4818 21.4329C88.373 21.3279 88.3149 21.1817 88.3205 21.0298C88.3205 20.8854 88.3768 20.7448 88.4818 20.6454C88.583 20.5404 88.7218 20.4823 88.8661 20.4842C89.0143 20.4804 89.1586 20.5385 89.2618 20.6454C89.3686 20.7504 89.4268 20.8929 89.423 21.0429Z" fill="#333333"></path><path d="M29.0776 22.6421C27.7745 21.4028 26.1339 20.5759 24.3639 20.2684L20.1151 16.2371C18.4145 14.6246 16.1607 13.7265 13.8169 13.7265H4.8244L5.19752 14.2084C5.89315 15.1084 6.96378 15.6334 8.10004 15.6334H13.1794C15.4444 15.6296 17.6251 16.4996 19.2657 18.0615L21.4463 20.1315H9.79504L10.6538 21.2396C11.0438 21.744 11.6457 22.0384 12.2851 22.0384H22.1438C22.6407 22.0384 23.1376 22.0796 23.627 22.164C24.9489 22.3909 26.2014 22.9122 27.2907 23.6922C27.6207 23.9284 27.9339 24.1872 28.2283 24.4665L32.0589 28.1003H16.5976C13.6088 28.104 10.8169 26.6059 9.16692 24.114L3.49877 15.5996C2.72064 14.4277 1.40626 13.7246 0 13.7246L2.83314 18.0184C2.86126 18.0653 2.88939 18.114 2.91939 18.159L8.05316 25.8859C9.76129 28.4622 12.6469 30.0109 15.7388 30.0072H36.8439L29.0776 22.6421Z" fill="#333333"></path><path d="M40.1471 12H39.6709V31.7345H40.1471V12Z" fill="#333333"></path></g><defs><clipPath id="clip0_157_185"><rect width="90" height="43" fill="white"></rect></clipPath></defs></svg> 