<svg xmlns="http://www.w3.org/2000/svg" width="90" height="43" viewBox="0 0 90 43" fill="none"><g id="client10 4"><g id="Group"><path id="Vector" d="M4.26338 16.978C4.13111 17.3783 4.02088 17.7785 4.02088 17.8675C4.02088 17.9787 5.52 18.0676 7.32777 18.0676C11.6708 18.0676 12.1779 18.29 12.1779 20.3135C12.1779 21.3808 11.0315 23.8936 10.2599 24.5162C9.95123 24.7608 9.33394 25.0498 8.89303 25.1833C7.9671 25.4723 3.13904 25.7614 3.13904 25.539C3.13904 25.4723 3.53587 24.4495 4.02088 23.2709C4.50589 22.0924 4.90271 21.0918 4.90271 21.0251C4.90271 20.9806 4.37361 20.9583 3.75633 21.0028L2.58789 21.0695L1.33128 24.0714C0.647852 25.7169 0.0746582 27.1623 0.0526123 27.2735C0.0526123 27.3624 2.45562 27.4069 5.40977 27.3624C10.1276 27.2735 10.8992 27.2068 12.0015 26.7843C15.2863 25.5835 17.7555 22.5816 17.7775 19.7353C17.7996 18.29 17.2925 17.5117 15.9698 16.8891C15.0218 16.4443 14.5147 16.3999 9.73077 16.3332L4.50589 16.2665L4.26338 16.978Z" fill="#333333"></path><path id="Vector_2" d="M19.916 21.7797L14.1179 27.2943L15.4848 27.361L16.8516 27.4277L18.3507 25.9824L19.8499 24.5148H23.5977H27.3455L27.61 25.9601L27.8746 27.4055L31.8428 27.361L35.8111 27.2943L37.222 23.8477C37.9937 21.9576 38.6991 20.2231 38.7873 20.0008C38.9196 19.7117 39.3164 20.4233 40.2644 22.6691C40.9699 24.3591 41.6753 25.8712 41.8296 26.0268C42.0501 26.2714 42.7997 25.76 45.9743 23.225C48.0907 21.5128 49.8985 20.0008 49.9646 19.8673C50.0528 19.7339 50.2291 19.6227 50.3614 19.6227C50.5157 19.6227 50.5157 19.7117 50.3614 19.8896C50.2071 20.1119 48.3111 24.5815 47.297 27.1164C47.2088 27.3388 48.3552 27.4055 52.566 27.4055H57.9452L59.3562 25.9601L60.7671 24.5148H64.6913C67.9761 24.5148 68.6154 24.5592 68.6154 24.8483C68.6154 25.004 68.7257 25.6711 68.8579 26.2937L69.1004 27.4055H70.4012C71.1066 27.4055 71.7019 27.3388 71.7019 27.2276C71.7019 27.1387 71.1287 24.6482 70.4452 21.6907L69.1666 16.2873H66.477H63.8094L58.32 21.4906C55.3217 24.3591 52.8085 26.6495 52.7644 26.6272C52.7424 26.5827 53.4038 24.8705 54.2415 22.8026C55.1013 20.7568 56.0493 18.4442 56.3359 17.6659L56.9091 16.2873H54.484H52.059L47.6718 19.8451C45.2468 21.8019 43.2626 23.314 43.2626 23.2028C43.2626 23.1139 43.5492 22.2911 43.924 21.4239L44.5633 19.8229L43.6815 18.044L42.7997 16.265L40.3746 16.3318L37.9496 16.3985L35.8332 21.5796C34.6647 24.4258 33.6286 26.6717 33.5404 26.5827C33.4301 26.4271 32.2397 21.624 31.3137 17.4436L31.0712 16.2873H28.3816H25.7141L19.916 21.7797ZM67.6013 20.2231C67.7997 21.3127 68.0422 22.3578 68.0863 22.558C68.1966 22.936 67.9541 22.9582 65.2645 22.9582H62.3324L64.6472 20.6234C65.9258 19.3337 67.0061 18.2886 67.0722 18.2886C67.1384 18.2886 67.3809 19.1558 67.6013 20.2231ZM26.4636 20.0008C26.5959 20.8457 26.7723 21.8464 26.8605 22.2244L27.0148 22.9582H24.2811H21.5474L23.752 20.7346C24.9645 19.5116 26.0007 18.5109 26.0889 18.5109C26.155 18.5109 26.3314 19.178 26.4636 20.0008Z" fill="#333333"></path><path id="Vector_3" d="M79.5281 16.5099C76.5078 17.1325 74.2151 18.8225 72.9805 21.3352C71.7239 23.9146 72.0766 25.7825 73.9946 26.8053C74.8323 27.2501 75.2733 27.2945 80.1895 27.3612L85.4805 27.4502L85.7671 26.6942C85.8994 26.2717 86.0317 25.8714 86.0317 25.8047C86.0317 25.7158 84.5105 25.6268 82.6366 25.5823C79.5943 25.5156 79.1533 25.4712 78.6022 25.0487C77.3456 24.0925 77.8085 21.5575 79.5943 19.7119C80.8068 18.4667 81.9752 18.0442 84.6648 17.8885L86.9796 17.7773L86.8694 18.311C86.8033 18.6001 86.671 19.0226 86.5828 19.2227C86.4505 19.5785 86.5608 19.623 87.5969 19.623H88.7874L89.4047 18.1109C89.7354 17.2659 89.9999 16.5321 89.9999 16.4432C89.9999 16.2208 80.6084 16.2875 79.5281 16.5099Z" fill="#333333"></path></g></g></svg>