<svg xmlns="http://www.w3.org/2000/svg" id="Layer_1" data-name="Layer 1" viewBox="0 0 90 43"><defs><style> .cls-1 { fill: #000; stroke-width: 0px; } </style></defs><path class="cls-1" d="M63.71,11.3c.15-.01.26-.03.37-.03,2.58,0,5.16-.03,7.74.01.86.01,1.72.16,2.56.34.77.16,1.43.56,1.57,1.42.15.94-.12,1.79-.96,2.28-.65.38-1.41.59-2.12.87-.11.04-.23.06-.36.17.09.02.18.04.27.07.47.13.95.23,1.4.41,1.72.7,2.08,2.5.76,3.83-.71.71-1.62,1.02-2.57,1.17-.76.12-1.53.19-2.3.2-2.55.02-5.1,0-7.64,0h-.62c.64-3.62,1.27-7.19,1.91-10.76ZM66.74,20.55c.54,0,.98.02,1.42,0,.41-.02.82-.05,1.21-.13,1.11-.24,1.66-.91,1.7-2.04.03-.76-.3-1.27-1.05-1.37-.86-.12-1.74-.12-2.63-.17-.22,1.27-.43,2.45-.65,3.72ZM67.66,15.35c.86-.05,1.67-.06,2.47-.17.32-.05.67-.29.9-.55.64-.7.38-1.52-.55-1.68-.71-.12-1.44-.1-2.16-.11-.09,0-.25.14-.27.24-.14.72-.26,1.44-.4,2.27Z"></path><path class="cls-1" d="M42.51,18.66c.41-2.32.78-4.51,1.18-6.7.15-.83,0-.67.8-.69.71-.01,1.41,0,2.2,0-.08.51-.15.98-.24,1.45-.52,2.96-1.06,5.92-1.57,8.88-.06.34-.16.47-.53.47-1.37-.02-2.74,0-4.11-.02-.21,0-.48-.13-.62-.3-1.65-2.02-3.28-4.05-4.92-6.08-.09-.12-.2-.23-.36-.42-.41,2.31-.8,4.53-1.2,6.77h-2.89c.21-1.19.41-2.36.62-3.53.39-2.24.8-4.47,1.17-6.71.07-.41.22-.53.63-.52,1.1.03,2.2.02,3.3,0,.33,0,.54.09.76.35,1.76,2.17,3.53,4.33,5.3,6.5.13.15.26.3.46.55Z"></path><path class="cls-1" d="M9.18,12.65c.08-.5.14-.94.24-1.36.02-.09.16-.21.25-.21,1.86-.02,3.72-.08,5.49.64,1.72.7,2.56,2.2,2.4,4.05-.19,2.1-.96,3.85-2.8,5.02-1.08.68-2.29,1.1-3.55,1.16-2.87.12-5.75.12-8.63.17-.03,0-.06-.02-.17-.05.32-1.67.65-3.34.98-5.05.4,0,.76-.03,1.12,0,.39.04.51-.14.56-.49.11-.74.26-1.48.4-2.28.34,0,.69-.01,1.03,0,.3.02.45-.05.49-.39.12-.91.29-1.82.44-2.75h1.71c-.57,3.13-1.13,6.23-1.69,9.32,1.51.55,3.55-.19,4.3-1.61.67-1.27.93-2.67.79-4.1-.13-1.36-.91-2.03-2.28-2.08-.33-.01-.66,0-1.07,0Z"></path><path class="cls-1" d="M62.02,11.27c-.18,1.07-.35,2.06-.52,3.04-.24,1.34-.51,2.68-.72,4.02-.21,1.4-1,2.33-2.22,2.95-1.14.58-2.37.81-3.63.89-1.92.12-3.83.1-5.71-.41-.11-.03-.21-.06-.31-.1-1.43-.53-2.03-1.41-1.79-2.9.38-2.43.84-4.84,1.27-7.26.01-.06.03-.12.06-.21h4.62c-.13.76-.25,1.48-.38,2.2-.28,1.6-.57,3.21-.83,4.81-.21,1.34.31,1.99,1.68,2.06.71.03,1.45.03,2.15-.11,1.27-.25,2.03-1.07,2.26-2.35.38-2.08.76-4.16,1.11-6.24.05-.32.17-.42.48-.41.8.02,1.6,0,2.48,0Z"></path><path class="cls-1" d="M78.57,11.3h10.43c-.11.64-.2,1.26-.34,1.86-.02.1-.29.2-.45.2-1.59.01-3.18,0-4.77,0-.17,0-.34,0-.57,0-.14.75-.27,1.48-.42,2.28h4.85c-.11.67-.19,1.27-.33,1.86-.02.1-.28.2-.43.21-1.29.02-2.58,0-3.87,0-.17,0-.34,0-.58,0-.13.75-.27,1.48-.41,2.28h5.78c-.13.72-.25,1.38-.37,2.04h-10.42c.63-3.59,1.26-7.15,1.89-10.74Z"></path><path class="cls-1" d="M15.84,22.06c.52-.84.99-1.6,1.46-2.36,1.66-2.68,3.32-5.36,4.96-8.05.16-.27.33-.4.67-.39,1.3.02,2.61.02,3.92,0,.33,0,.47.1.54.42.79,3.34,1.59,6.67,2.38,10.01.02.1.02.22.04.37-.86,0-1.71,0-2.56,0-.47,0-.94,0-1.42,0q-.68,0-.83-.68c-.09-.4-.17-.79-.26-1.19-.01-.06-.04-.12-.08-.21-1.61,0-3.23,0-4.85.01-.13,0-.3.15-.38.27-.33.5-.62,1.02-.94,1.52-.08.12-.25.26-.38.27-.72.03-1.44.01-2.27.01ZM24.35,18.44c-.34-1.53-.67-2.99-1-4.45-.04,0-.08,0-.12,0-.89,1.46-1.77,2.92-2.7,4.45h3.82Z"></path><path class="cls-1" d="M9.69,31.75c.44-2.61.88-5.15,1.33-7.7.02-.13.22-.32.33-.32,1.86,0,3.71-.05,5.57.04,1.6.08,2.53,1.56,2.02,3.02-.3.84-.96,1.24-1.77,1.47-.18.05-.36.08-.48.11.69,1.09,1.38,2.18,2.15,3.39-1.1,0-2.04.01-2.97-.01-.11,0-.24-.18-.31-.31-.4-.69-.75-1.41-1.17-2.09-.19-.3-.48-.58-.78-.77-.27-.17-.52-.07-.57.33-.11.82-.27,1.64-.41,2.46-.02.12-.05.24-.08.37h-2.84ZM13.38,26.92c.71,0,1.37.03,2.02-.02.24-.02.53-.15.69-.33.15-.17.25-.5.19-.7-.06-.19-.35-.38-.57-.42-.41-.08-.84-.07-1.26-.07-.79,0-.79,0-.93.75-.05.26-.09.52-.13.78Z"></path><path class="cls-1" d="M49.13,31.75h-2.85c.53-2.67,1.05-5.32,1.57-7.96.05-.02.1-.06.14-.06,1.87,0,3.74-.02,5.61.03,1.22.04,2.05.8,2.17,1.83.15,1.27-.46,2.21-1.68,2.59-.27.08-.55.14-.76.2.67,1.08,1.35,2.17,2.1,3.38-1.1,0-2.04.01-2.97-.02-.12,0-.26-.2-.33-.33-.38-.7-.71-1.43-1.13-2.11-.19-.31-.53-.54-.85-.74-.22-.14-.39,0-.45.29-.17.96-.38,1.91-.57,2.89ZM50.12,26.94c.67,0,1.32.06,1.95-.02.33-.04.69-.29.92-.55.27-.3.09-.82-.29-.87-.73-.09-1.47-.07-2.2-.1-.13.49-.26.98-.39,1.47,0,.01,0,.03,0,.07Z"></path><path class="cls-1" d="M24.54,23.56c.4.05.86.06,1.31.16,2.23.47,3.38,2.43,2.75,4.73-.51,1.86-1.79,2.97-3.66,3.31-.83.15-1.73.15-2.57.02-2.41-.37-3.56-2.12-3.05-4.49.43-2,2.07-3.44,4.13-3.61.34-.03.69-.06,1.08-.1ZM21.91,28.39s.08.03.12.04c-.03.81.39,1.38,1.19,1.56.84.19,1.53-.07,2.03-.75.5-.68.72-1.46.7-2.29-.01-.68-.36-1.15-1-1.39-.86-.33-1.86-.03-2.32.83-.33.62-.49,1.33-.72,2Z"></path><path class="cls-1" d="M70.69,23.75h7.53c-.13.59-.24,1.13-.37,1.73-.9,0-1.79,0-2.69,0-.31,0-.63,0-.94,0q-1.13,0-1.25,1.23h4.44c-.12.55-.21,1.04-.35,1.5-.03.09-.28.16-.43.16-1.23.01-2.45.01-3.68,0-.28,0-.43.05-.47.36-.05.37-.15.73-.25,1.18h5.02c-.13.61-.24,1.14-.37,1.67-.02.08-.18.18-.28.18-2.52,0-5.03,0-7.55-.02-.01,0-.02-.01-.06-.04.57-2.65,1.14-5.31,1.71-7.96Z"></path><path class="cls-1" d="M41.45,26.72h4.47c-.12.59-.23,1.11-.33,1.64-1.35,0-2.65.02-3.96-.01-.42,0-.6.11-.63.53-.02.32-.12.64-.19,1.03h5.03c-.12.59-.21,1.11-.33,1.62-.02.09-.19.22-.29.22-2.52.01-5.03,0-7.62,0,.52-2.69,1.03-5.35,1.54-8.02h7.52c-.1.54-.18,1.06-.31,1.56-.02.09-.27.16-.42.16-1.21.01-2.42.03-3.64,0-.49-.01-.74.1-.74.62,0,.18-.06.37-.12.64Z"></path><path class="cls-1" d="M87.16,25.99c-.89.05-1.75.09-2.59.13-.37-.95-1.19-1.34-1.99-.94-.19.09-.4.31-.42.49-.02.14.22.38.39.46.69.3,1.41.54,2.1.83.35.14.69.31,1,.52,1.23.86,1.34,2.46.18,3.42-.44.37-1,.68-1.56.82-1.25.32-2.53.27-3.78-.05-1.21-.31-1.97-1.19-1.98-2.27,0-.11.15-.32.24-.33.78-.07,1.56-.1,2.34-.14.31,1.21,1.16,1.67,2.26,1.21.25-.1.53-.42.55-.66.02-.19-.27-.52-.5-.62-.97-.44-2-.75-2.96-1.22-1.01-.5-1.31-1.72-.68-2.66.25-.37.64-.71,1.04-.92.91-.48,1.93-.56,2.94-.45.68.07,1.37.2,2.01.44.84.31,1.31.97,1.4,1.93Z"></path><path class="cls-1" d="M1,31.77c.39-2.34.77-4.62,1.17-6.9.2-1.15.21-1.15,1.39-1.15,1.24,0,2.48,0,3.72.04,1.36.05,2.23.76,2.4,1.88.19,1.27-.47,2.47-1.73,2.82-.94.26-1.95.26-2.93.33-.66.05-.66,0-.78.67-.12.66-.21,1.33-.34,1.99-.02.12-.16.3-.25.3-.88.02-1.75.01-2.66.01ZM4.96,25.36c-.1.62-.2,1.2-.3,1.79.46,0,.87.06,1.26-.02.31-.06.66-.24.87-.47.16-.18.25-.59.15-.8-.11-.23-.45-.43-.72-.48-.39-.08-.81-.02-1.27-.02Z"></path><path class="cls-1" d="M31.77,31.75h-2.86c.21-1.12.4-2.21.61-3.3.27-1.43.56-2.86.82-4.3.05-.3.15-.44.47-.44,1.49.02,2.99,0,4.48.04,1.36.04,2.16.65,2.39,1.71.26,1.19-.31,2.36-1.5,2.9-.47.21-1.02.32-1.54.38-.64.07-1.29.06-1.93.05-.32,0-.44.11-.48.42-.14.85-.31,1.69-.47,2.53ZM32.66,27.17c.42,0,.74,0,1.07,0,.14,0,.3.01.42-.05.26-.15.56-.3.73-.54.4-.55.1-1.15-.58-1.21-.42-.03-.84,0-1.3,0-.11.6-.22,1.18-.34,1.8Z"></path><path class="cls-1" d="M60.94,31.75h-2.85c.41-2,.82-3.98,1.24-6.01h-2.84c.13-.64.24-1.22.38-1.8.02-.09.19-.22.29-.22,2.77,0,5.54,0,8.3,0,.03,0,.05.03.12.07-.11.55-.2,1.12-.36,1.67-.03.12-.3.24-.47.25-.83.03-1.66.01-2.54.01-.43,2.02-.85,4.02-1.28,6.02Z"></path><path class="cls-1" d="M67.55,31.76h-2.87c.15-.75.3-1.47.45-2.2.37-1.78.76-3.55,1.12-5.33.08-.4.24-.54.65-.52.77.03,1.54,0,2.37,0-.58,2.71-1.15,5.36-1.72,8.04Z"></path></svg>