<svg xmlns="http://www.w3.org/2000/svg" id="Layer_2" data-name="Layer 2" viewBox="0 0 60.53 40"><defs><style> .cls-1 { fill: #333; stroke-width: 0px; } </style></defs><g id="Layer_1-2" data-name="Layer 1"><g><path class="cls-1" d="m1.91,33.02c-.62,0-1.24.04-1.85.14v6.67h1.53v-2.22c.23.02.44.03.68.03,1.66,0,2.73-.92,2.73-2.36,0-1.52-1.15-2.27-3.09-2.27Zm.06,3.86c-.13,0-.26,0-.39-.03v-3.06c.11-.02.21-.02.32-.02,1.12,0,1.55.61,1.55,1.53s-.44,1.58-1.49,1.58Zm9.38-1.76c0-1.33-.94-2.1-3.06-2.1-.62,0-1.23.05-1.84.14v6.67h1.53v-2.58c.2.02.41.03.61.03h.02l1.48,2.55h1.67l-1.77-2.82c.8-.28,1.35-1.04,1.36-1.89Zm-3.06,1.38c-.11,0-.22-.02-.32-.04v-2.69c.13-.02.26-.03.39-.02,1,0,1.48.5,1.48,1.32,0,.75-.49,1.43-1.54,1.43Zm7.97-3.55c-2,0-3.47,1.46-3.47,3.6,0,2.28,1.35,3.44,3.37,3.44s3.46-1.46,3.46-3.6c0-2.28-1.36-3.44-3.37-3.44h.02Zm-.08,6.22c-1.15,0-1.77-1.23-1.77-2.71s.72-2.68,1.81-2.68c1.16,0,1.77,1.23,1.77,2.71s-.73,2.68-1.83,2.68h.02Zm7.05-6.15c-.62,0-1.23.04-1.84.14v6.67h1.53v-2.22c.22.02.44.03.67.03,1.66,0,2.73-.92,2.73-2.36-.04-1.52-1.2-2.27-3.13-2.27h.03Zm.06,3.86c-.13,0-.26,0-.39-.03v-3.06c.1-.02.2-.02.31-.02,1.12,0,1.55.61,1.55,1.53s-.45,1.58-1.5,1.58h.03Zm5.98,2.1v-2.12h.14c.63,0,1.3,0,1.95.04v-.92c-.65.03-1.32.04-1.95.04h-.18v-2.06h.7c.65,0,1.31.02,1.96.09v-.92h-4.17v6.7h4.23v-.95c-.65.08-1.31.11-1.96.11h-.72Zm9.3-3.86c0-1.33-.94-2.1-3.06-2.1-.62,0-1.23.05-1.84.14v6.67h1.53v-2.58c.2.02.41.03.61.03h.02l1.49,2.55h1.67l-1.77-2.82c.79-.3,1.31-1.05,1.31-1.89h.03Zm-3.06,1.38c-.11,0-.22-.01-.33-.03v-2.69c.13-.02.25-.03.38-.02,1,0,1.48.5,1.48,1.32-.03.74-.51,1.42-1.56,1.42h.03Zm4.21-2.45c.55-.07,1.11-.1,1.66-.09h.25v5.87h1.53v-5.88h.23c.56,0,1.12.03,1.67.09v-.92h-5.37l.03.92Zm6.74,5.78h1.53v-6.7h-1.53v6.7Zm5.19-.85v-2.12h.18c.63,0,1.3,0,1.95.04v-.92c-.65.03-1.32.04-1.95.04h-.18v-2.06h.7c.65,0,1.31.02,1.96.09v-.92h-4.21v6.7h4.23v-.95c-.65.08-1.31.11-1.96.11h-.72Zm7.59-2.96l-1.01-.51c-.61-.31-.92-.53-.92-.98s.44-.74,1.04-.74c.58,0,1.14.17,1.62.49l.4-.78c-.6-.39-1.31-.58-2.02-.55-1.34,0-2.51.69-2.51,1.93,0,.92.45,1.41,1.27,1.84l.92.47c.73.36,1.07.61,1.07,1.1,0,.55-.55.82-1.18.82-.62,0-1.22-.24-1.69-.65l-.49.78c.62.5,1.4.77,2.21.75,1.53,0,2.57-.78,2.57-2.06-.03-.8-.4-1.43-1.32-1.92h.03Z"></path><polygon class="cls-1" points="57.26 0 47.4 11.69 41.59 6.27 47.61 16.71 57.26 0"></polygon><path class="cls-1" d="m3.59,16.8c-1.2-.02-2.4.06-3.59.23v10.79c1.19.17,2.4.24,3.61.23,5.39,0,7.31-2.9,7.31-5.76,0-3.32-2.19-5.48-7.33-5.48Zm.21,9.95c-.36,0-.73-.02-1.09-.07v-8.54c.35-.05.71-.08,1.07-.09,2.92,0,4.29,1.67,4.29,4.29-.02,2.34-1.31,4.41-4.27,4.41Zm19.08-3.59c0,2.3-.92,3.37-2.73,3.37-1.95,0-2.58-1.51-2.58-3.79v-5.77h-2.73v6.4c0,2.92,1.45,4.75,4.92,4.75s5.02-2.06,5.02-5.05v-6.11h-1.91v6.19Zm13.07-1.11c1.32-.44,2-1.39,2-2.45,0-2.11-2.14-2.82-5.14-2.82-1.1,0-2.2.07-3.28.23v10.79c1.24.15,2.48.23,3.72.23,3.24,0,5.36-1.15,5.36-3.29,0-1.3-.91-2.32-2.67-2.68Zm-3.72-4.03c.27-.04.55-.05.82-.05,1.47,0,2.31.66,2.31,1.72,0,1.27-.88,1.9-2.37,1.9h-.76v-3.57Zm.76,8.79c-.26,0-.51-.02-.76-.06v-3.96h.76c1.84,0,2.9.66,2.9,1.91,0,1.33-.96,2.11-2.9,2.11Zm24.78-9.85v10.87h2.73v-10.87h-2.73Zm-16.59,10.87h2.08l3.83-7.05,3.84,7.05h3.12l-6.43-11.14-6.43,11.14Z"></path></g></g></svg>