<?xml version="1.0" encoding="UTF-8"?> <svg xmlns="http://www.w3.org/2000/svg" width="90" height="43" viewBox="0 0 90 43" fill="none"><g clip-path="url(#clip0_157_235)"><path d="M53.1267 27.1445L46.3149 12.0059H45.4374L38.6255 27.5833C37.9674 28.6783 37.748 29.117 37.0918 29.9945H39.2837L42.1318 23.402H48.0849L50.933 29.9945H55.3167C54.2217 29.117 53.7829 28.6801 53.1248 27.1464L53.1267 27.1445ZM42.8086 22.1046L45.0005 16.8452L47.4117 22.1046H42.8086Z" fill="#333333"></path><path d="M33.3667 12.2256H32.4892L25.2386 26.2693L17.7705 12.2256H16.6755L14.703 27.3661C14.4837 28.8999 14.4837 29.3386 14.0449 30.2142H16.2368C16.0174 29.5561 16.0174 28.2417 16.2368 27.1468L17.5512 17.9237L23.9242 29.9949H25.0192L31.1729 18.3606L32.2679 26.9255C32.4873 27.9305 32.4873 28.9899 32.2679 29.993L36.2129 30.2124C35.7742 29.3349 35.5548 28.898 35.3354 27.3643L33.3667 12.2256Z" fill="#333333"></path><path d="M10.7578 28.461H3.52596V21.4298H11.1965L11.6353 20.1154H3.52596V13.0823H9.89904C10.5009 13.101 11.1047 13.2473 11.6522 13.521C11.8715 13.521 12.0909 13.7404 12.3103 13.7404V11.9873H0.000976562C0.439724 13.3017 0.439724 13.9598 0.439724 14.8354V27.126C0.439724 28.0035 0.439724 28.6597 0.000976562 29.9741H12.9497L13.169 28.221C13.169 28.0203 11.8547 28.6785 10.7578 28.4591V28.461Z" fill="#333333"></path><path d="M71.7927 27.1445L64.9809 12.0059H64.1034L57.2916 27.5833C56.6334 28.6783 56.4141 29.117 55.7578 29.9945H57.9497L60.7978 23.402H66.734L69.5821 29.9758H73.9658C72.8877 29.117 72.4508 28.6783 71.7927 27.1445ZM61.2553 22.1046L63.6665 16.8452L66.0778 22.1046H61.2572H61.2553Z" fill="#333333"></path><path d="M81.4547 21.6658H82.1128C84.524 21.2271 86.7159 19.6933 86.7159 17.0627C86.714 11.8053 80.5772 12.0228 77.9297 12.0228H74.2041C74.6428 13.3371 74.6428 13.9952 74.6428 14.8709V27.1614C74.6428 28.0389 74.6428 28.6952 74.2041 30.0095H78.1491C77.7103 28.6952 77.7103 28.037 77.7103 27.1614V21.6827C78.1491 21.6827 78.5878 21.9021 79.4634 22.7777C81.5822 25.3896 83.9372 27.8177 86.4947 30.0283H90.0009C89.5621 29.7733 81.4547 21.6639 81.4547 21.6639V21.6658ZM77.9297 20.7883V13.1009C83.4084 12.8815 84.0834 15.7315 84.0834 17.0459C84.0834 18.3602 83.6447 19.9127 81.8916 20.5708C80.7778 21.0096 77.7085 20.7902 77.9278 20.7902L77.9297 20.7883Z" fill="#333333"></path></g><defs><clipPath id="clip0_157_235"><rect width="90" height="43" fill="white"></rect></clipPath></defs></svg> 