<?xml version="1.0" encoding="UTF-8"?>
<svg xmlns="http://www.w3.org/2000/svg" viewBox="0 0 642.4 177.02">
  <defs>
    <style>.cls-1{fill:#fff;}</style>
  </defs>
  <g id="Layer_1" data-name="Layer 1">
    <path class="cls-1" d="M245.67,72a9.12,9.12,0,0,1-1.58-.23c-17.26-5.63-34.19-4-50.86,2.42-14.54,5.63-27.32,14.2-39.21,24.14a13.75,13.75,0,0,0-5.31,11.16c.09,4.54.06,9.08.24,13.61.16,3.8.72,4.22,4.58,4.56.93.08,1.84.29,2.77.44,0,.21,0,.43,0,.65a5.19,5.19,0,0,1-1.54.55c-2.27,0-4.54,0-6.81,0-4.07,0-8.15.11-12.24.14a14.7,14.7,0,0,1-2-.27c.22-1.39,1.12-1.28,1.88-1.44,2.65-.58,3.16-1.09,3.38-3.78.16-2.08.18-4.16.21-6.25,0-2.53,0-5,0-8.09-1,.78-1.81,1.31-2.53,1.91a191,191,0,0,1-25,17.88c-7,4.08-14.34,7.39-22.36,9-11.47,2.27-22.2,0-32.35-5.42A98.73,98.73,0,0,1,26.09,107.2c-.22-.28-.38-.6-.72-1.11.68-.8,1.34-1.63,2.05-2.41,2.73-2.93,5.39-5.88,6.84-9.73a17.36,17.36,0,0,0,.23-11.49c-1.8-5.94-8.66-9.52-14.61-7.95-1.29.34-1.47,1.17-1.47,2.23,0,3.18-.05,6.35,0,9.53,0,10,.05,20,.18,29.92a74.28,74.28,0,0,0,.7,8.14c.38,3.16,1.15,3.81,4.3,4.14,1.13.12,2.25.3,3.37.45,0,.24,0,.47.06.7a6.94,6.94,0,0,1-1.83.5q-10.2.12-20.4.16a7.81,7.81,0,0,1-1.74-.4c0-.19,0-.39-.08-.58a10.76,10.76,0,0,1,1.79-.6c3.32-.52,3.81-.83,4.13-4.24.42-4.78.83-9.58.82-14.38,0-10-.32-20-.51-29.93,0-1.18-.14-2.36-.27-3.53-.35-3.13-1.31-4-4.5-4.3l-3-.25c.33-1.44,1.26-1.28,2-1.28,2.8,0,5.62.1,8.42.09,5.62,0,11.25-.17,16.87-.09a22,22,0,0,1,5.62.9c7.77,2.21,11.67,8.83,10,16.78-.89,4.37-3.42,7.74-6.46,10.82-1,1-2.08,2-3,2.9,0,.35,0,.57.08.69,7.22,8.8,14.95,17.07,24.57,23.32A40.36,40.36,0,0,0,78.23,133c7.14.59,13.87-1.06,20.37-3.92,9.13-4,17.2-9.69,25.19-15.52,9.82-7.16,19.47-14.56,29.3-21.7A186.69,186.69,0,0,1,184,73.2a85,85,0,0,1,27.87-8,60.88,60.88,0,0,1,32,5.62,9.33,9.33,0,0,1,1.68,1.22Z"></path>
    <path class="cls-1" d="M77.65,78a40.56,40.56,0,0,1,14.07,1.13c9.47,2.53,15.8,8.31,17.88,18.1,2.34,11-1.46,24.36-14.14,30.39a32.29,32.29,0,0,1-27.93.34c-9.71-4.3-15.36-14.31-14.77-25.43A25.58,25.58,0,0,1,70.52,79.65C72.84,78.9,75.27,78.51,77.65,78Zm21.91,24.44c-.67-7.48-3.5-13.22-8.32-17-10.71-8.44-25.18-3.06-27.58,10.28A33.34,33.34,0,0,0,64.27,111c1.42,4.91,3.84,9.17,8,12.27C83,131.14,96,126.41,98.94,113.55A33.22,33.22,0,0,0,99.56,102.39Z"></path>
    <path class="cls-1" d="M160.48,128.38a9.8,9.8,0,0,1,2.33-.8c2.93-.14,4.61-1.87,5.73-4.34s2.25-5.14,3.34-7.73l14.25-33.82a23.9,23.9,0,0,1,1.56-3.17c1.36-2.24,2.45-2.2,3.64.06.25.48.44,1,.66,1.49q8.56,19.53,17.15,39.07a46,46,0,0,0,2.36,4.58c1.14,2,2.71,3.37,5.19,3.42a17.68,17.68,0,0,1,2.87.66c-1,.57-1.43,1-1.85,1-5.44,0-10.87,0-16.31-.08-.23,0-.46-.22-.92-.45,1.91-1.55,1-3.22.35-4.89-1.5-3.69-3-7.38-4.59-11.37l-17.12.13c-1.53,4-3,7.8-4.4,11.6a5.86,5.86,0,0,0-.29,1.6c-.09,1.29.43,2.06,1.83,2.14.94.06,1.87.27,3.1.46-1.42,1.23-1.42,1.2-6.08,1.1-2.08,0-4.17.09-6.26.08S163,129.84,160.48,128.38ZM187.92,91l-.53-.07-6.8,17.47c4.79-.64,9.12.05,13.79-.64Z"></path>
    <path class="cls-1" d="M257.5,117.81a20.61,20.61,0,0,1,.09,2.6c-.11,1.53-.31,3.06-.55,4.59-.51,3.28-.89,3.67-4.15,3.73-3.63.07-7.26,0-10.89,0-6.25,0-12.51.07-18.77.1-.93,0-2,.47-2.64-.69.22-1.18,1.19-.95,1.93-1.11,2.24-.48,3-1.1,3.14-3.41.23-3.25.36-6.52.35-9.78,0-9.71-.18-19.41-.29-29.11,0-.46,0-.91-.05-1.36-.2-2.55-.93-3.31-3.44-3.7-.9-.13-2,.32-2.61-.85,1.56-.91,8.72-1.29,19.32-1,1,0,2.18-.26,3.18,1.1-.89.2-1.52.4-2.16.49-3.89.53-4.35,1-4.42,5q-.09,6.39,0,12.78c.06,6.81.17,13.61.28,20.42.09,5.43,1.17,6.56,6.51,6.68,2.35.06,4.72,0,7.07-.08,3.11-.14,5.36-1.5,6.21-4.71a9.42,9.42,0,0,1,1-2Z"></path>
    <path class="cls-1" d="M116.49,79.8c.81-.44,1.21-.82,1.65-.87,4.18-.5,16-.07,17.54.67l-2.62,1.55a30.86,30.86,0,0,0,1.4,3.13c2.08,3.6,4.23,7.17,6.35,10.75a7.27,7.27,0,0,1,.28.8,59.37,59.37,0,0,1-5.92,4.81c-.6-.77-1.16-1.43-1.64-2.14-2.6-3.93-5.16-7.87-7.78-11.78-.8-1.2-1.7-2.33-2.62-3.46a7.41,7.41,0,0,0-4.79-2.83A13.89,13.89,0,0,1,116.49,79.8Z"></path>
    <path class="cls-1" d="M158.31,138.38l-.15-.15.32,0Z"></path>
    <path class="cls-1" d="M203.13,139.35c-.08,0-.17.12-.23.1s-.1-.13-.16-.2l.36-.15Z"></path>
    <path class="cls-1" d="M202.86,141.79c0,.06.12.12.12.17s-.08.12-.11.17C202.87,142,202.86,141.91,202.86,141.79Z"></path>
    <path class="cls-1" d="M354.16,127.22a12.31,12.31,0,0,1-1.9-.14,15,15,0,0,1-2.29-.54c-2-.61-2.7-2.57-3.31-6.82l-6.15-41.36c-.21-1.42-.61-2.09-1.21-2.09s-.95.53-1.49,1.61l-18.38,38.05L301,78.36c-.88-1.76-1.29-2.09-1.82-2.09s-1,.6-1.16,1.75l-6.69,43.52c-.33,2.3-.88,4.93-2.78,5.33a7.93,7.93,0,0,1-2,.22c-.68,0-1.08.13-1.08.47,0,.6.54.73,1.22.73,2.16,0,5.4-.19,6.69-.19s4.25.19,7.09.19c1,0,1.62-.13,1.62-.73,0-.34-.46-.47-1-.47a13.11,13.11,0,0,1-2.83-.35c-1.16-.27-2-.88-2-2.16a25.94,25.94,0,0,1,.21-3.18l3.51-26.35h.28c2.36,5.07,6.41,13,7,14.46.81,1.89,6.15,12.23,7.77,15.34,1.09,2,1.76,3.38,2.37,3.38s.95-.61,2.5-3.79l14.73-30.13h.27l4.06,29.39c.27,1.89.07,2.77-.34,2.91s-.74.4-.74.74.4.62,2,.75c2.7.19,12,.34,13.72.34a3.81,3.81,0,0,0,1.2-.17c.34-.11.55-.3.55-.58S354.77,127.22,354.16,127.22Z"></path>
    <path class="cls-1" d="M406,127.09a15.11,15.11,0,0,1-2.84-.28c-1.42-.34-3.37-1.28-5.94-7.36-4.32-10.28-15.14-37.31-16.77-41-.67-1.55-1.07-2.15-1.68-2.15s-1.08.73-1.9,2.7l-17,41.89c-1.35,3.39-2.64,5.68-5.74,6.08a17.6,17.6,0,0,1-1.9.14h-.19c-.54,0-.82.13-.82.53s.41.67,1.28.67,1.46,0,2.16,0c2.75-.05,5.23-.17,5.82-.17,2.09,0,5,.19,7.16.19.75,0,1.15-.13,1.15-.67s-.2-.53-1-.53h-1c-2.08,0-2.7-.89-2.7-2.11a13,13,0,0,1,1-4.12l3.65-9.25c.14-.41.27-.54.6-.54h15.08a.64.64,0,0,1,.67.47l5.4,13.92a1.1,1.1,0,0,1-.6,1.55c-.67.08-1,.21-1,.61s.82.48,2,.54c5.4.13,10.34.13,12.77.13s3.11-.13,3.11-.67S406.54,127.09,406,127.09Zm-22.84-19.4H370.72c-.28,0-.35-.21-.28-.48l6.23-16.55c.06-.27.19-.61.4-.61s.26.34.34.61l6.08,16.62C383.56,107.48,383.49,107.69,383.15,107.69Z"></path>
    <path class="cls-1" d="M422.34,109.31V96.8c0-2.6,0-62.32,0-64l-8.39,8V116.2c0,13.24.08,20-5.06,25.2a13.49,13.49,0,0,1-3.24,2.57c-1.16.61-1.5.89-1.5,1.23a.55.55,0,0,0,.56.54,3.19,3.19,0,0,0,1.34-.41c1.42-.68,2.5-1.22,3.38-1.76,6.49-4,10.07-8.65,11.49-12.77a36.33,36.33,0,0,0,1.62-12C422.55,115.46,422.34,112.21,422.34,109.31Z"></path>
    <path class="cls-1" d="M468.84,118c-.47,0-.61.26-.74,1-.47,2.77-1.28,4.19-3,5s-4.6.81-6.36.81c-6.89,0-8-1-8.11-5.68-.07-2,0-8.17,0-10.47v-5.33c0-.41.07-.68.41-.68,1.62,0,8.32.06,9.59.2,2.51.26,3.45,1.28,3.8,2.63a20.39,20.39,0,0,1,.26,2.44.54.54,0,0,0,.61.61c.6,0,.6-.75.6-1.29s.21-3.18.28-4.53c.27-3.44.54-4.53.54-4.93s-.21-.55-.47-.55-.62.35-1.09.88-1.61.88-3.24,1-9.32.14-10.82.14c-.4,0-.47-.28-.47-.75V81.47c0-.48.14-.68.47-.68,1.36,0,8.45.13,9.6.27,3.38.41,4,1.22,4.53,2.43a7.22,7.22,0,0,1,.4,2.44c0,.61.14.94.62.94s.61-.4.67-.74c.14-.81.27-3.79.34-4.46a41.63,41.63,0,0,1,.54-4.39c0-.34-.07-.61-.41-.61a6.32,6.32,0,0,0-1.08.27,24.85,24.85,0,0,1-2.9.4c-1.28.07-14.74.07-16.9.07-1,0-2.5-.07-4.25-.13s-3.66-.07-5.48-.07c-1,0-1.49.13-1.49.61s.41.6,1.15.6a14.39,14.39,0,0,1,2.64.2c2.22.48,2.77,1.56,2.9,3.86s.14,4.06.14,14.32v11.9c0,6.22,0,11.55-.34,14.4-.27,2-.61,3.44-1.95,3.71a11.38,11.38,0,0,1-2.44.28c-.81,0-1.08.19-1.08.53s.47.67,1.35.67c1.35,0,3.11-.13,4.66-.13s3.11-.06,3.86-.06c2,0,4.12.06,7,.19s6.63.21,11.69.21c2.57,0,3.18,0,3.66-1.76a53.84,53.84,0,0,0,.88-7.5C469.39,118.56,469.39,118,468.84,118Z"></path>
    <path class="cls-1" d="M497,97.49l-1.89-1.42c-5.61-4.26-7.17-6.63-7.17-9.74,0-4,3.05-7,8.05-7,4.4,0,6.35,2,7.36,3.31a8.21,8.21,0,0,1,1.76,4.46c0,.81.21,1.22.68,1.22s.74-.54.74-2c0-5.27.27-7.23.27-8.11,0-.48-.34-.67-.94-.81a33,33,0,0,0-9-1.14c-9.4,0-15.61,5.33-15.61,12.77,0,5.46,2.56,10.2,10,16l3.11,2.43c5.61,4.4,6.62,7.5,6.62,10.81,0,3.58-3,7.7-9.06,7.7-4.18,0-8.18-1.82-9.66-6.82a14,14,0,0,1-.6-3.44c0-.54-.08-1.15-.68-1.15s-.75.75-.82,1.76-.33,5.13-.33,8.85c0,1.49.2,1.82,1.28,2.3a23.47,23.47,0,0,0,9.87,1.76,19.55,19.55,0,0,0,10.74-2.78A13.63,13.63,0,0,0,508,114.72C508,108.29,505.12,103.63,497,97.49Z"></path>
    <path class="cls-1" d="M559.13,76.73a15.2,15.2,0,0,0-1.83.35,33.38,33.38,0,0,1-4.66.33H525.88c-2.23,0-4.81-.13-6.76-.33-1.69-.14-2.37-.81-2.91-.81s-.61.4-.81,1.28c-.13.54-1.42,6.69-1.42,7.77,0,.74.14,1.08.61,1.08s.6-.27.74-.81a8.4,8.4,0,0,1,1.15-2.37c1-1.48,2.64-1.82,6.56-2L533.11,81V108.7c0,6.22,0,11.55-.34,14.4-.2,2-.61,3.44-2,3.71a11.2,11.2,0,0,1-2.43.28c-.81,0-1.09.19-1.09.53s.48.67,1.36.67c2.7,0,7-.19,8.52-.19,1.88,0,6.14.19,10.6.19.75,0,1.29-.19,1.29-.67s-.34-.53-1.09-.53a29.56,29.56,0,0,1-3.44-.28c-2-.27-2.44-1.76-2.64-3.65-.34-2.91-.34-8.24-.34-14.46V81l8.52.2c6,.14,7.83,2,8,3.79l.08.75c.06,1,.19,1.34.73,1.34s.55-.4.62-1.08c0-1.75.19-6.41.19-7.83C559.66,77.14,559.6,76.73,559.13,76.73Z"></path>
    <path class="cls-1" d="M586.9,127.09a29.73,29.73,0,0,1-3.45-.28c-2-.27-2.5-1.49-2.7-3.31-.27-2.91-.27-8.24-.27-14.8V96.8c0-10.26,0-12.16.13-14.32.14-2.36.69-3.51,2.51-3.86a11.77,11.77,0,0,1,2-.2c.68,0,1.08-.13,1.08-.68,0-.4-.54-.53-1.42-.53-2.56,0-6.55.2-8.24.2-2,0-6.21-.2-8.78-.2-1.09,0-1.63.13-1.63.53,0,.55.4.68,1.08.68a9.82,9.82,0,0,1,2.44.27c1.48.34,2.16,1.49,2.3,3.79s.13,4.06.13,14.32v11.9c0,6.56,0,11.89-.34,14.73-.21,2-.61,3.11-2,3.38a11.28,11.28,0,0,1-2.43.28c-.82,0-1.08.19-1.08.53s.47.67,1.36.67c2.7,0,7-.19,8.5-.19,1.83,0,6.09.19,10.55.19.74,0,1.28-.19,1.28-.67S587.65,127.09,586.9,127.09Z"></path>
    <path class="cls-1" d="M641,115.73c-.55,0-.69.26-.88,1.35a11.34,11.34,0,0,1-2.3,4.46c-2.7,3.11-6.35,3.78-12.37,3.78-9,0-21.29-8-21.29-24.06,0-6.55,1.29-13,6.22-17.5,3-2.7,6.82-4.18,12.7-4.18,6.22,0,11.49,1.82,13.73,4.18A9.72,9.72,0,0,1,639.41,90c0,1,.14,1.49.68,1.49s.74-.54.81-1.55c.13-1.36.07-5.07.2-7.3s.34-3.18.34-3.72-.28-.74-1-.81c-2-.21-4.19-.81-6.75-1.15a67.79,67.79,0,0,0-9.8-.67c-10.07,0-16.5,2.7-21.36,7.16a25.39,25.39,0,0,0-7.91,18.51c0,6.56,1.76,14.13,8.38,19.93,6.15,5.35,13.93,7.38,23.18,7.38,4.33,0,9.47-.48,12.17-1.56a2.43,2.43,0,0,0,1.76-2,65,65,0,0,0,1.48-9C641.57,116.2,641.44,115.73,641,115.73Z"></path>
    <path class="cls-1" d="M576.54,0,506.3,12.44,502.46,17,439.57,3.68,421.36,22.17l-8.76,8.88L381.43,62.7,248.61,67.09H382.92L412.6,36.71l8.76-8.95L440.45,8.23,498.52,66h54.37L529,41.33,574.09,2.81l64.81,63h3.5ZM518.75,38V56.66H502.63L483.89,37.48h15.59l10.15-13.14L523,38Z"></path>
    <polygon class="cls-1" points="421.36 15.94 421.36 27.76 412.6 36.71 412.6 15.94 421.36 15.94"></polygon>
    <polygon class="cls-1" points="388.96 66.73 440.11 13.49 443.26 17.69 399.64 60.6 399.64 66.03 388.96 66.73"></polygon>
    <rect class="cls-1" x="438.27" y="42.47" width="8.67" height="8.67"></rect>
    <rect class="cls-1" x="449.3" y="42.47" width="8.67" height="8.67"></rect>
    <rect class="cls-1" x="438.27" y="52.98" width="8.67" height="8.67"></rect>
    <rect class="cls-1" x="449.3" y="52.98" width="8.67" height="8.67"></rect>
    <rect class="cls-1" x="562.92" y="39.19" width="8.68" height="8.67"></rect>
    <rect class="cls-1" x="573.96" y="39.19" width="8.67" height="8.67"></rect>
    <rect class="cls-1" x="562.92" y="49.7" width="8.68" height="8.67"></rect>
    <rect class="cls-1" x="573.96" y="49.7" width="8.67" height="8.67"></rect>
    <rect class="cls-1" x="506.73" y="36.94" width="2.64" height="2.63"></rect>
    <rect class="cls-1" x="510.08" y="36.94" width="2.64" height="2.63"></rect>
    <rect class="cls-1" x="506.73" y="40.12" width="2.64" height="2.64"></rect>
    <rect class="cls-1" x="510.08" y="40.12" width="2.64" height="2.64"></rect>
    <polygon class="cls-1" points="573.91 6.13 570.5 9.94 624.75 62.09 624.75 66.69 635.26 66.69 573.91 6.13"></polygon>
    <polygon class="cls-1" points="0 165.97 159.45 162.85 159.45 169.08 0 165.97"></polygon>
    <polygon class="cls-1" points="640.26 165.97 480.82 169.08 480.82 162.85 640.26 165.97"></polygon>
    <path class="cls-1" d="M175,162.7c0-4.65,0-5.49-.06-6.45s-.3-1.49-1.28-1.69a4.84,4.84,0,0,0-1-.09.22.22,0,0,1-.24-.19c0-.18.16-.23.48-.23,1.35,0,3.22.09,3.37.09.33,0,2.59-.09,3.53-.09a9.2,9.2,0,0,1,5.45,1.31,5.23,5.23,0,0,1,2.06,4c0,2.21-.92,4.42-3.61,6.9,2.45,3.13,4.47,5.79,6.2,7.63a6.11,6.11,0,0,0,3.64,2.15,7.19,7.19,0,0,0,1.17.09c.15,0,.26.09.26.18s-.17.24-.71.24h-2.12A6,6,0,0,1,189,176c-1.29-.68-2.33-2.15-4-4.39-1.25-1.63-2.66-3.63-3.25-4.41a.47.47,0,0,0-.39-.18l-3.67-.06c-.14,0-.2.1-.2.24V168c0,2.86,0,5.22.15,6.47.09.86.26,1.52,1.16,1.65.42.05,1.08.11,1.34.11s.24.09.24.18-.15.24-.48.24c-1.64,0-3.51-.09-3.67-.09s-1.9.09-2.8.09c-.33,0-.48-.06-.48-.24s.06-.18.24-.18a5.67,5.67,0,0,0,.9-.11c.59-.13.74-.79.86-1.65.15-1.25.15-3.61.15-6.47Zm2.39,2.59a.4.4,0,0,0,.2.36,8.41,8.41,0,0,0,3.14.48,3.8,3.8,0,0,0,2.23-.57c1.05-.71,1.82-2.33,1.82-4.59,0-3.73-2-6-5.16-6a8.84,8.84,0,0,0-2,.18.36.36,0,0,0-.24.36Z"></path>
    <path class="cls-1" d="M206.46,162.7c0-4.65,0-5.49-.07-6.45s-.29-1.49-1.27-1.69a4.84,4.84,0,0,0-1-.09.22.22,0,0,1-.24-.19c0-.18.15-.23.48-.23.69,0,1.49,0,2.15,0l1.22.06c.21,0,6.14,0,6.83,0a7,7,0,0,0,1.29-.15c.15,0,.26-.14.41-.14s.12.11.12.27-.14.56-.23,1.4c0,.29-.1,1.61-.15,2,0,.15-.09.33-.22.33s-.24-.14-.24-.38a3.17,3.17,0,0,0-.17-1.08c-.21-.48-.51-.83-2.12-1-.5-.06-3.76-.09-4.09-.09-.12,0-.18.09-.18.3v8.23c0,.21,0,.3.18.3.39,0,4.06,0,4.75-.06s1.13-.12,1.39-.42.33-.39.46-.39.15.06.15.24-.15.69-.24,1.67c-.06.6-.13,1.71-.13,1.91s0,.57-.2.57-.21-.12-.21-.27a3,3,0,0,0-.12-1c-.12-.42-.39-.93-1.55-1-.81-.09-3.76-.15-4.27-.15a.18.18,0,0,0-.21.2V168c0,1,0,4.47,0,5.1.09,2.06.54,2.45,3.46,2.45a8.46,8.46,0,0,0,2.86-.33c.79-.33,1.14-.92,1.35-2.15.06-.33.12-.44.27-.44s.18.23.18.44a29.07,29.07,0,0,1-.39,2.89c-.21.78-.45.78-1.61.78-2.24,0-3.88-.07-5-.09s-1.88-.09-2.33-.09c-.05,0-.57,0-1.19,0s-1.29.06-1.73.06-.48-.06-.48-.24.06-.18.24-.18a5.41,5.41,0,0,0,.89-.11c.6-.13.75-.79.87-1.65.15-1.25.15-3.61.15-6.47Z"></path>
    <path class="cls-1" d="M237.89,154.8c.36-1,.48-1.17.66-1.17s.3.14.66,1.07c.44,1.13,5.13,13.45,6.95,18,1.08,2.66,1.94,3.14,2.57,3.31a3.78,3.78,0,0,0,1.19.18c.18,0,.29,0,.29.18s-.26.24-.59.24-2.62,0-4.68-.06c-.57,0-.9,0-.9-.21s.09-.18.21-.21.36-.33.18-.8L241.65,168a.25.25,0,0,0-.26-.17H235a.32.32,0,0,0-.3.24l-1.78,5.28a6.28,6.28,0,0,0-.42,2c0,.59.62.86,1.13.86h.3c.21,0,.3.06.3.18s-.19.24-.45.24c-.71,0-2-.09-2.33-.09s-2,.09-3.37.09c-.39,0-.56-.06-.56-.24s.11-.18.26-.18a8.48,8.48,0,0,0,.86-.06c1.38-.18,2-1.31,2.52-2.8Zm3.1,11.92c.16,0,.16-.09.13-.2l-2.83-8.06c-.16-.45-.31-.45-.46,0l-2.62,8.06c-.06.14,0,.2.09.2Z"></path>
    <path class="cls-1" d="M265.93,168c0,4.38.13,6.29.66,6.83s1.25.68,3.58.68c1.58,0,2.89,0,3.61-.89a4.21,4.21,0,0,0,.78-1.79c0-.24.08-.39.26-.39s.18.13.18.45a18.72,18.72,0,0,1-.44,3c-.21.69-.31.81-1.89.81-2.14,0-3.69-.07-4.94-.09s-2.18-.09-3.05-.09c-.12,0-.62,0-1.23,0s-1.25.06-1.69.06-.48-.06-.48-.24.06-.18.24-.18a5.41,5.41,0,0,0,.89-.11c.6-.13.75-.79.87-1.65.15-1.25.15-3.61.15-6.47V162.7c0-4.65,0-5.49-.06-6.45s-.3-1.49-1.28-1.69a4.84,4.84,0,0,0-1-.09.22.22,0,0,1-.24-.19c0-.18.16-.23.48-.23,1.35,0,3.22.09,3.37.09s2.33-.09,3.22-.09c.33,0,.48,0,.48.23a.22.22,0,0,1-.24.19,5.61,5.61,0,0,0-1,.09c-.86.14-1.1.65-1.17,1.69s-.06,1.8-.06,6.45Z"></path>
    <path class="cls-1" d="M308.68,162.7c0-4.65,0-5.49-.07-6.45s-.29-1.49-1.27-1.69a4.84,4.84,0,0,0-1-.09.22.22,0,0,1-.24-.19c0-.18.15-.23.48-.23.69,0,1.49,0,2.15,0l1.22.06c.21,0,6.14,0,6.84,0a7,7,0,0,0,1.28-.15c.15,0,.26-.14.41-.14s.12.11.12.27-.14.56-.23,1.4c0,.29-.1,1.61-.15,2,0,.15-.09.33-.22.33s-.24-.14-.24-.38a3.17,3.17,0,0,0-.17-1.08c-.21-.48-.51-.83-2.12-1-.5-.06-3.76-.09-4.09-.09-.12,0-.18.09-.18.3v8.23c0,.21,0,.3.18.3.39,0,4.06,0,4.75-.06s1.13-.12,1.4-.42.32-.39.45-.39.15.06.15.24-.15.69-.24,1.67c-.06.6-.13,1.71-.13,1.91s0,.57-.2.57-.21-.12-.21-.27a3,3,0,0,0-.12-1c-.12-.42-.39-.93-1.55-1-.8-.09-3.76-.15-4.27-.15a.18.18,0,0,0-.21.2V168c0,1,0,4.47,0,5.1.09,2.06.54,2.45,3.46,2.45a8.55,8.55,0,0,0,2.87-.33c.78-.33,1.13-.92,1.34-2.15.06-.33.12-.44.27-.44s.18.23.18.44a29.07,29.07,0,0,1-.39,2.89c-.21.78-.45.78-1.61.78-2.24,0-3.88-.07-5-.09s-1.88-.09-2.33-.09c-.06,0-.57,0-1.19,0s-1.29.06-1.73.06-.48-.06-.48-.24.06-.18.24-.18a5.41,5.41,0,0,0,.89-.11c.6-.13.75-.79.87-1.65.15-1.25.15-3.61.15-6.47Z"></path>
    <path class="cls-1" d="M333.91,176.21c-.42-.21-.45-.33-.45-1.13,0-1.49.13-2.69.15-3.16s.09-.48.24-.48.21.09.21.33a5.24,5.24,0,0,0,.09,1.1c.45,2.21,2.41,3,4.42,3a4,4,0,0,0,4.26-4c0-2.06-.87-3.25-3.43-5.37l-1.35-1.1c-3.16-2.59-3.87-4.44-3.87-6.47,0-3.19,2.38-5.37,6.17-5.37a12.15,12.15,0,0,1,2.78.29,4.37,4.37,0,0,0,1,.16c.24,0,.31.06.31.2s-.13,1.14-.13,3.16c0,.48-.06.69-.2.69s-.22-.15-.24-.39a6.07,6.07,0,0,0-.39-1.49c-.18-.33-1-1.58-3.73-1.58a3.4,3.4,0,0,0-3.67,3.46c0,1.7.77,2.78,3.64,5l.83.66c3.52,2.77,4.36,4.63,4.36,7a6.15,6.15,0,0,1-2.54,4.95,7.8,7.8,0,0,1-4.5,1.26A9,9,0,0,1,333.91,176.21Z"></path>
    <path class="cls-1" d="M368.13,168c0,2.86,0,5.22.15,6.47.09.86.26,1.52,1.16,1.65.42.05,1.07.11,1.34.11s.24.09.24.18-.15.24-.48.24c-1.64,0-3.52-.09-3.67-.09s-2,.09-2.92.09c-.33,0-.48-.06-.48-.24s.06-.18.24-.18a5.67,5.67,0,0,0,.9-.11c.59-.13.74-.79.86-1.65.15-1.25.15-3.61.15-6.47V155.33l-4.41.06c-1.86,0-2.57.24-3,1a5.73,5.73,0,0,0-.51.92c-.08.24-.17.31-.3.31s-.14-.09-.14-.27.6-2.87.65-3.11.19-.56.3-.56a6.19,6.19,0,0,0,1.32.36c.86.09,2,.15,2.35.15H373a11.73,11.73,0,0,0,2.11-.15c.46-.07.72-.15.84-.15s.15.17.15.35c0,.9-.09,3-.09,3.29s-.09.38-.2.38-.22-.09-.24-.51l0-.33c-.09-.88-.8-1.58-3.67-1.63l-3.75-.06Z"></path>
    <path class="cls-1" d="M394.29,154.8c.35-1,.47-1.17.65-1.17s.3.14.65,1.07c.46,1.13,5.14,13.45,7,18,1.07,2.66,1.93,3.14,2.56,3.31a3.86,3.86,0,0,0,1.19.18c.18,0,.31,0,.31.18s-.27.24-.6.24-2.63,0-4.69-.06c-.57,0-.89,0-.89-.21s.09-.18.21-.21.35-.33.18-.8L398.05,168a.28.28,0,0,0-.27-.17h-6.42a.32.32,0,0,0-.3.24l-1.79,5.28a6.28,6.28,0,0,0-.42,2c0,.59.63.86,1.14.86h.29c.22,0,.31.06.31.18s-.18.24-.45.24c-.72,0-2-.09-2.33-.09s-2,.09-3.37.09c-.39,0-.57-.06-.57-.24s.13-.18.27-.18.63,0,.87-.06c1.37-.18,2-1.31,2.5-2.8Zm3.1,11.92c.15,0,.15-.09.11-.2l-2.83-8.06c-.15-.45-.29-.45-.44,0l-2.63,8.06c-.06.14,0,.2.09.2Z"></path>
    <path class="cls-1" d="M424.08,168c0,2.86,0,5.22.16,6.47.08.86.26,1.52,1.16,1.65.42.05,1.07.11,1.34.11s.24.09.24.18-.15.24-.48.24c-1.64,0-3.53-.09-3.67-.09s-2,.09-2.92.09c-.33,0-.48-.06-.48-.24s.05-.18.24-.18a5.41,5.41,0,0,0,.89-.11c.6-.13.74-.79.87-1.65.15-1.25.15-3.61.15-6.47V155.33l-4.41.06c-1.86,0-2.57.24-3.05,1a5.73,5.73,0,0,0-.51.92c-.09.24-.17.31-.3.31s-.15-.09-.15-.27.6-2.87.66-3.11.18-.56.3-.56a6,6,0,0,0,1.31.36c.87.09,2,.15,2.36.15H429a11.81,11.81,0,0,0,2.11-.15c.45-.07.72-.15.84-.15s.15.17.15.35c0,.9-.09,3-.09,3.29s-.09.38-.21.38-.21-.09-.24-.51l0-.33c-.09-.88-.8-1.58-3.67-1.63l-3.76-.06Z"></path>
    <path class="cls-1" d="M447.29,162.7c0-4.65,0-5.49-.06-6.45s-.3-1.49-1.28-1.69a4.84,4.84,0,0,0-1-.09.22.22,0,0,1-.24-.19c0-.18.15-.23.48-.23.69,0,1.49,0,2.15,0l1.22.06c.21,0,6.15,0,6.83,0a7,7,0,0,0,1.29-.15c.14,0,.27-.14.42-.14s.11.11.11.27-.15.56-.24,1.4c0,.29-.09,1.61-.15,2,0,.15-.09.33-.2.33s-.24-.14-.24-.38a3.5,3.5,0,0,0-.18-1.08c-.21-.48-.51-.83-2.12-1-.51-.06-3.76-.09-4.09-.09-.11,0-.18.09-.18.3v8.23c0,.21,0,.3.18.3.39,0,4.06,0,4.74-.06s1.14-.12,1.41-.42.33-.39.44-.39.15.06.15.24-.15.69-.24,1.67c-.05.6-.11,1.71-.11,1.91s0,.57-.22.57-.2-.12-.2-.27a3.26,3.26,0,0,0-.11-1c-.13-.42-.4-.93-1.56-1-.81-.09-3.76-.15-4.27-.15a.19.19,0,0,0-.21.2V168c0,1,0,4.47,0,5.1.09,2.06.54,2.45,3.47,2.45a8.49,8.49,0,0,0,2.86-.33c.77-.33,1.13-.92,1.34-2.15.06-.33.12-.44.27-.44s.18.23.18.44a29.07,29.07,0,0,1-.39,2.89c-.21.78-.44.78-1.61.78-2.23,0-3.88-.07-5-.09s-1.88-.09-2.33-.09c-.06,0-.57,0-1.2,0s-1.28.06-1.72.06-.48-.06-.48-.24.06-.18.24-.18a5.67,5.67,0,0,0,.9-.11c.59-.13.74-.79.86-1.65.15-1.25.15-3.61.15-6.47Z"></path>
    <path class="cls-1" d="M182.5,69.38c-16.93-11.42-42.43-18.7-70.94-18.7s-54,7.27-70.9,18.7c15.69-13.87,41.6-22.93,70.9-22.93S166.79,55.51,182.5,69.38Z"></path>
    <path class="cls-1" d="M144.9,23.24l-8.75,21.13A137.11,137.11,0,0,0,84,45L74.29,22.75,85.43,35.12c.36.36,4.84,4.63,11.06,3.34a12.33,12.33,0,0,0,9.27-8.7Q108,17.49,110.33,5.23,112,17.35,113.7,29.49A11.78,11.78,0,0,0,121.83,38c6.32,1.82,11.1-2.59,11.3-2.79Z"></path>
    <path class="cls-1" d="M128,22.18V36.71a11.2,11.2,0,0,1-7.75-.82Z"></path>
    <path class="cls-1" d="M100.8,34.84a11.23,11.23,0,0,1-9.23,2.34V20.62Z"></path>
    <path class="cls-1" d="M130.93,21a2.74,2.74,0,1,1-2.74-2.74A2.74,2.74,0,0,1,130.93,21Z"></path>
    <path class="cls-1" d="M112.76,3.28A2.74,2.74,0,1,1,110,.54,2.74,2.74,0,0,1,112.76,3.28Z"></path>
    <path class="cls-1" d="M147.55,21.72A2.74,2.74,0,1,1,144.81,19,2.74,2.74,0,0,1,147.55,21.72Z"></path>
    <path class="cls-1" d="M93.4,18.53a2.74,2.74,0,1,1-2.73-2.74A2.74,2.74,0,0,1,93.4,18.53Z"></path>
    <path class="cls-1" d="M76.32,20.44a2.74,2.74,0,1,1-2.73-2.73A2.73,2.73,0,0,1,76.32,20.44Z"></path>
  </g>
</svg>
