<?xml version="1.0" encoding="UTF-8"?> <svg xmlns="http://www.w3.org/2000/svg" width="90" height="43" viewBox="0 0 90 43" fill="none"><path fill-rule="evenodd" clip-rule="evenodd" d="M3.71624 30.6135C8.78061 30.591 13.8656 30.6135 18.93 30.6135V32.721H3.71624C3.71624 32.0029 3.71624 31.3091 3.71624 30.6135ZM0 13.7254H2.1075C2.13 18.8104 2.1075 23.8973 2.1075 28.9822H0V13.7254ZM20.5387 13.7685C21.2568 13.7685 21.9506 13.7254 22.6462 13.7254C22.6687 18.8104 22.6462 23.8973 22.6462 28.9822H20.5162C20.5387 23.9179 20.5387 18.8329 20.5387 13.7685ZM84.5436 16.0279C85.8917 15.876 87.3467 15.9623 88.5204 16.701C89.1504 17.0929 89.5629 17.7229 89.8029 18.4185C89.1936 18.6791 88.5861 18.9398 87.9767 19.2229C87.6729 18.5048 87.0636 17.8748 86.2817 17.7885C85.5204 17.7023 84.6729 17.6573 83.9773 18.0491C83.2817 18.396 83.3679 19.5698 84.0861 19.8529C85.7604 20.5054 87.8679 20.2223 89.2592 21.5704C90.1723 22.4404 90.1929 23.9385 89.5854 25.0035C89.0417 25.9598 87.9767 26.481 86.9342 26.6779C86.1092 26.8091 85.2823 26.8091 84.4573 26.7004C83.1317 26.526 81.8492 25.8529 81.0673 24.7448C81.5886 24.2891 82.0892 23.8316 82.5673 23.3329C83.2198 24.2891 84.3054 24.9191 85.4792 24.9416C86.1973 24.9641 87.1086 24.9416 87.5436 24.2685C87.8904 23.8129 87.7611 23.1173 87.3261 22.7685C86.8911 22.4648 86.3698 22.3766 85.8692 22.2904C84.6954 22.0729 83.4561 21.9435 82.4361 21.3116C81.1967 20.5729 80.9792 18.7691 81.7179 17.6179C82.3273 16.6392 83.4561 16.161 84.5436 16.0317V16.0279ZM49.6836 16.2023C51.0955 16.2248 52.5093 16.2023 53.9005 16.2023C54.9224 16.2454 56.008 16.4423 56.8124 17.1154C57.7686 17.9404 57.9205 19.3541 57.5736 20.5054C57.3786 21.2666 56.7486 21.8085 56.0736 22.1573C56.8124 23.5916 57.5511 25.0485 58.2899 26.5035H55.9218C55.2486 25.221 54.6618 23.8729 53.9436 22.6129C53.2255 22.6354 52.4868 22.6354 51.7705 22.6354C51.7705 23.9179 51.748 25.2004 51.7705 26.5035H49.6405C49.7061 23.0704 49.6836 19.6354 49.6836 16.2023ZM27.3206 16.2023C28.1681 16.2023 29.0156 16.2248 29.8631 16.1798C30.8418 18.7654 31.8187 21.3529 32.7318 23.961C33.7537 21.3754 34.6668 18.7448 35.6868 16.1798C36.5118 16.2023 37.3387 16.2023 38.1637 16.1798C38.1637 19.6129 38.1412 23.0479 38.1637 26.481H36.1649C36.2305 24.1335 36.1874 21.786 36.208 19.461C35.2949 21.786 34.4474 24.156 33.5568 26.481C32.9924 26.481 32.4262 26.4585 31.8618 26.481C30.9918 24.1335 30.0581 21.8291 29.2537 19.461C29.1881 21.786 29.2312 24.1335 29.2312 26.4585H27.2756C27.3412 23.0685 27.3187 19.6335 27.3187 16.2004L27.3206 16.2023ZM5.10936 16.2023H7.21686V26.526C6.52124 26.5035 5.80499 26.526 5.10936 26.5035C5.13186 23.0704 5.13186 19.6354 5.10936 16.2023ZM15.4762 16.2023H17.5837V26.5035C16.8881 26.5035 16.1718 26.481 15.4762 26.5035C15.4762 23.0704 15.4537 19.6354 15.4762 16.2023ZM74.2217 16.2023H76.3948C77.7636 19.6354 79.1117 23.0704 80.4804 26.5035H78.1761C77.893 25.7216 77.5892 24.9379 77.3061 24.156H73.2205C72.9167 24.9379 72.6561 25.7216 72.3505 26.5035H70.1342C71.5255 23.091 72.8717 19.6354 74.2198 16.2023H74.2217ZM40.1868 16.2023H47.6418C47.6193 16.8117 47.6193 17.4417 47.6418 18.0491H42.3168V20.2879C43.9687 20.3104 45.6205 20.2879 47.2724 20.2879C47.2949 20.8973 47.2724 21.5273 47.2724 22.1348C45.6205 22.1348 43.948 22.1123 42.2962 22.1348C42.3187 22.9823 42.2962 23.8091 42.2962 24.6566C44.0999 24.6791 45.9261 24.6791 47.7299 24.6566V26.5035C45.208 26.481 42.688 26.5035 40.1662 26.481C40.2093 23.0685 40.2093 19.6354 40.1887 16.2004L40.1868 16.2023ZM10.26 16.2023H12.39C12.39 19.6354 12.3675 23.0704 12.39 26.5035H10.26C10.2825 23.0704 10.2825 19.6354 10.26 16.2023ZM59.0736 26.5035L63.1817 16.2023C63.8999 16.2248 64.6161 16.2248 65.3342 16.2023C66.703 19.6354 68.0511 23.091 69.4423 26.5035H67.138C66.8549 25.7216 66.5511 24.9379 66.268 24.156H62.1824C61.8992 24.9379 61.618 25.7423 61.3124 26.5241C60.5511 26.5016 59.8124 26.5241 59.0736 26.5016V26.5035ZM73.8748 22.3523C74.8086 22.3954 75.7648 22.3091 76.7005 22.3954C76.2448 21.0923 75.7442 19.8098 75.2661 18.5048C74.8311 19.8079 74.3323 21.0904 73.8748 22.3523ZM62.8124 22.3954C63.7461 22.3729 64.6817 22.3729 65.6155 22.3954C65.1599 21.1129 64.6817 19.8304 64.1811 18.5479C63.7686 19.851 63.2249 21.0904 62.8124 22.3954ZM51.793 17.9835V20.8748C52.7718 20.8316 53.7711 21.006 54.7274 20.7435C55.8786 20.4398 55.9011 18.5048 54.7705 18.1785C53.7918 17.8748 52.7924 18.0041 51.793 17.9835ZM3.71624 10.0092C8.78061 9.98854 13.8656 10.0092 18.93 10.0092V12.1392H3.71624C3.71624 11.421 3.71624 10.7048 3.71624 10.0092Z" fill="#333333"></path></svg> 