<svg xmlns="http://www.w3.org/2000/svg" id="Layer_1" data-name="Layer 1" viewBox="0 0 90 43"><defs><style> .cls-1 { fill: #000; stroke-width: 0px; } </style></defs><path class="cls-1" d="M11.1,13.87h3.51v15.27h-6.83l-3.27-15.14v15.14H1v-15.27h6.85l3.25,15.14v-15.14h0ZM25.84,13.87h-6.89l-3.2,15.27h3.47l.63-3.03h5.1l.63,3.03h3.47l-3.2-15.27h-.01ZM20.44,23.38l1.96-9.38,1.96,9.38h-3.92ZM37.14,23.01l5.26-9.14h-3.9l-4.43,7.72v-7.72h-3.88v15.27h3.88v-5.87h2.4l2.03,5.87h3.92l-2.12-6.13s-3.16,0-3.16,0ZM51.91,19.82h-2.66l-1.74,2.81v-8.77h-3.88v15.27h3.88v-6.33h4.41v6.33h3.88v-15.27h-3.88v5.95ZM57.67,29.13h9.66v-2.84h-5.78v-3.56h4.63v-2.84h-2.99l-1.63,2.62v-5.82h5.78v-2.84h-9.66v15.27h0ZM68.86,29.13h9.66v-2.84h-5.78v-3.56h4.63v-2.84h-2.99l-1.63,2.62v-5.82h5.78v-2.84h-9.66v15.27h0ZM83.93,26.3v-12.43h-3.88v15.27h8.95v-2.84h-5.07Z"></path></svg>