<?xml version="1.0" encoding="UTF-8"?> <svg xmlns="http://www.w3.org/2000/svg" width="90" height="43" viewBox="0 0 90 43" fill="none"><g clip-path="url(#clip0_157_262)"><path d="M28.8806 16.2006H26.5687C26.22 17.275 24.2719 20.5956 22.8412 22.8944C21.3619 20.5975 19.365 17.275 18.9975 16.2006H16.6856C16.935 17.3575 16.9519 20.0687 16.9519 22.0019C16.9519 23.935 16.935 26.6463 16.6856 27.8031H18.9319C18.6975 26.695 18.6656 21.7881 18.6656 19.2737C20.1131 21.4731 21.5119 23.7869 22.4738 25.5044H23.0887C24.0206 23.7681 25.4494 21.4544 26.8969 19.24C26.8969 21.7356 26.865 26.6781 26.6306 27.8012H28.8769C28.6275 26.6444 28.6106 23.9331 28.6106 22C28.6106 20.0669 28.6275 17.3556 28.8769 16.1987M0 22.0506C0 25.4725 2.56125 28 6.00562 28C9.45 28 12.1106 25.405 12.1106 21.9512C12.1106 18.4975 9.54938 16 6.105 16C2.66063 16 0 18.5969 0 22.0506ZM1.92937 21.8031C1.92937 19.2081 3.51 17.4888 5.88937 17.4888C8.56875 17.4888 10.1812 19.6375 10.1812 22.1988C10.1812 24.76 8.60062 26.5131 6.22125 26.5131C3.54188 26.5131 1.92937 24.3644 1.92937 21.8031ZM34.0369 27.8031H36.2831C36.0487 26.7119 36.0169 22.2831 36.0169 19.225C38.4619 22.1013 40.8581 24.8781 42.6713 27.8031H44.6512C44.4019 26.5319 44.3681 23.9519 44.3681 22.0019C44.3681 20.0519 44.4019 17.3575 44.6512 16.2006H42.405C42.6394 17.2919 42.6713 21.7206 42.6713 24.7787C40.2263 21.8875 37.83 19.06 36.0169 16.2006H34.0369C34.2862 17.3575 34.3031 20.0687 34.3031 22.0019C34.3031 23.935 34.2862 26.6463 34.0369 27.8031ZM49.8075 27.8031H52.0537C51.8044 26.6463 51.7875 23.9519 51.7875 22.0187C51.7875 20.0856 51.8044 17.3594 52.0537 16.2006H49.8075C50.0569 17.3575 50.0737 20.0856 50.0737 22.0187C50.0737 23.9519 50.0569 26.6463 49.8075 27.8031ZM55.815 16.2006C56.7806 17.3575 58.6444 20.2825 60.5081 23.5075V25.0769C60.5081 26.0687 60.4912 27.0437 60.3262 27.805H62.5537C62.3869 27.0437 62.3719 26.0706 62.3719 25.0769V23.5075C64.2356 20.2844 66.0825 17.3575 67.0631 16.2006H64.65C64.3837 17.3744 62.6531 20.1681 61.5731 21.8706C60.4575 20.1681 58.6781 17.3744 58.395 16.2006H55.815ZM67.4925 27.8031H69.9056C70.0725 26.6294 72.1856 22.2663 73.3987 19.7875C74.6306 22.2681 76.7944 26.6294 76.9594 27.8031H79.5375C78.7388 26.6463 75.9112 21.0419 73.515 16.0019C71.1206 21.0437 68.4244 26.6463 67.4925 27.8031ZM80.2181 18.1169C81.3825 17.8694 82.7456 17.8525 84.2437 17.8525C84.2437 21.1581 84.2269 26.6463 83.9775 27.8031H86.2406C85.9913 26.6463 85.9744 21.16 85.9744 17.8525C87.4706 17.8525 88.8356 17.8694 90 18.1169V16.2006H80.2181V18.1188V18.1169Z" fill="#333333"></path></g><defs><clipPath id="clip0_157_262"><rect width="90" height="43" fill="white"></rect></clipPath></defs></svg> 