<svg xmlns="http://www.w3.org/2000/svg" width="90" height="43" viewBox="0 0 90 43" fill="none"><path d="M27.2633 11.7272H25.4577C25.4577 11.0709 25.3489 10.6191 25.1295 10.3716C24.8689 10.1109 24.4189 9.93469 23.7627 9.85219C23.3802 9.81094 22.7633 9.78469 21.8895 9.78469C21.0177 9.76782 20.1458 9.79594 19.2777 9.86719C18.8914 9.89344 18.5145 9.98157 18.1564 10.1278C17.9108 10.2347 17.7064 10.4166 17.5676 10.6472C17.4195 10.9491 17.3483 11.2828 17.3633 11.6184C17.337 12.0366 17.442 12.4528 17.6651 12.8091C17.8976 13.1372 18.4583 13.3416 19.3602 13.411C19.6058 13.4391 20.427 13.4653 21.837 13.5066C23.3277 13.5478 24.3533 13.6022 24.9139 13.6697C25.3996 13.7222 25.8739 13.8478 26.3221 14.0391C26.6633 14.1891 26.9577 14.431 27.1696 14.7385C27.4302 15.0947 27.5671 15.6685 27.5671 16.4485C27.5671 17.5697 27.2933 18.3216 26.7327 18.7191C26.1852 19.1297 25.3658 19.3622 24.2839 19.4447C23.4627 19.4991 22.4239 19.5404 21.1508 19.5404C19.5102 19.5404 18.402 19.4729 17.8133 19.3622C16.4858 19.0885 15.7208 18.4322 15.5295 17.3653C15.462 16.9716 15.4301 16.5741 15.4339 16.1747H17.2395V16.4072C17.2283 16.8216 17.2976 17.236 17.4439 17.6241C17.5883 17.911 17.8395 18.1322 18.1433 18.2391C18.5952 18.3985 19.0714 18.4772 19.5514 18.4716C20.1402 18.4716 20.8227 18.4847 21.6158 18.4847C22.4558 18.5053 23.2977 18.4697 24.132 18.376C24.5445 18.346 24.9439 18.2147 25.2946 17.9935C25.6096 17.761 25.7727 17.1872 25.7727 16.3116C25.7914 15.9572 25.707 15.6047 25.527 15.2991C25.2945 14.9841 24.7752 14.7797 23.967 14.7103C23.7345 14.6972 22.887 14.656 21.3964 14.6016C20.0014 14.5603 19.152 14.5191 18.852 14.4928C17.6764 14.3841 16.827 14.1103 16.2664 13.6303C15.8014 13.2328 15.567 12.6047 15.567 11.7703C15.567 10.5797 15.9645 9.78657 16.7576 9.39094C17.3726 9.08906 18.1939 8.91281 19.2195 8.84344C19.9039 8.80219 20.6839 8.78906 21.5164 8.78906C23.2264 8.78906 24.402 8.85656 25.0995 9.00844C26.2902 9.25406 26.9877 9.81469 27.1921 10.6641C27.2371 11.0184 27.2596 11.3747 27.2596 11.7309" fill="#333333"></path><path d="M30.7773 9.89344V13.4635H38.928V14.4628H30.7773V18.3872H39.2842V19.3997H28.9717V8.88281H39.2842V9.89532H30.7773V9.89344Z" fill="#333333"></path><path d="M42.5127 8.86816V18.2919H50.7739V19.4001H40.707V8.86816H42.5127Z" fill="#333333"></path><path d="M54.0009 9.89344V13.4635H62.1516V14.4628H54.0009V18.3872H62.5078V19.3997H52.1953V8.88281H62.5078V9.89532H54.0009V9.89344Z" fill="#333333"></path><path d="M75.0913 15.8846H76.897V16.404C76.897 17.3208 76.747 17.9921 76.4038 18.4008C75.967 18.9484 75.1176 19.2896 73.8745 19.4134C73.3007 19.4677 71.9319 19.509 69.7719 19.509C68.7594 19.5315 67.7469 19.4527 66.7494 19.2765C65.5325 19.0309 64.7244 18.4552 64.3288 17.5665C64.0682 16.9646 63.9463 15.8433 63.9463 14.1746C63.9463 12.7665 63.9594 11.904 64.0007 11.5889C64.055 10.9421 64.3475 10.3383 64.8219 9.89394C65.2869 9.48332 65.9844 9.18332 66.9013 8.99207C67.6813 8.82894 69.2394 8.75956 71.5926 8.75956C72.5169 8.73519 73.4413 8.78957 74.3545 8.92269C75.5845 9.18332 76.3232 9.75707 76.5557 10.6458C76.6495 11.1183 76.7001 11.6002 76.7057 12.0821H74.9001L74.887 11.754C74.9057 11.3714 74.8401 10.9871 74.6957 10.6327C74.5776 10.3758 74.3676 10.1714 74.107 10.0589C73.6963 9.86769 72.8207 9.77207 71.4801 9.77207C69.9763 9.77207 68.8138 9.81332 68.0057 9.86769C67.5763 9.88644 67.1544 9.98394 66.7607 10.1546C66.4644 10.3027 66.2263 10.5502 66.0913 10.8539C65.9263 11.1689 65.8457 11.6883 65.8457 12.414C65.8457 13.6852 65.8738 14.8083 65.9132 15.7796C65.9676 17.0246 66.3107 17.8046 66.9126 18.1046C67.3232 18.309 67.9794 18.4196 68.8813 18.4458C69.3463 18.459 69.8394 18.474 70.3588 18.474C71.6301 18.474 72.5751 18.4458 73.2163 18.3783C73.8576 18.3108 74.3113 18.2002 74.5438 18.0502C74.9263 17.8046 75.1045 17.3115 75.1045 16.5465C75.1045 16.3833 75.1045 16.164 75.0913 15.8902" fill="#333333"></path><path d="M84.8019 9.98899V19.3996H82.9962V9.97586H77.7725V8.88086H89.9994V9.98899H84.8019Z" fill="#333333"></path><path d="M21.8185 28.1137H28.6979C28.7261 28.4006 28.7523 28.7156 28.7523 29.0719C28.7523 29.8931 28.7392 30.48 28.6979 30.8362C28.6698 31.3875 28.4636 31.9162 28.1092 32.34C27.7042 32.7712 27.1717 33.0619 26.5904 33.1744C25.8911 33.3656 24.4154 33.4612 22.1729 33.4612C21.0123 33.4819 19.8517 33.4275 18.6985 33.2981C18.0329 33.2175 17.3916 33.0037 16.8104 32.6681C16.0454 32.2275 15.556 31.4306 15.511 30.5475C15.4679 30.0656 15.4491 29.5819 15.4566 29.0981C15.4566 29.0025 15.4566 28.62 15.4435 27.9356V27.5119C15.4266 26.9081 15.4623 26.3043 15.5523 25.7062C15.7848 24.27 16.5779 23.3812 17.9054 23.0118C18.646 22.8375 19.4017 22.7456 20.1629 22.7381C20.7104 22.71 21.4492 22.71 22.351 22.71C23.6504 22.71 24.5673 22.7231 25.0998 22.7512C25.5648 22.7681 26.0279 22.8281 26.4817 22.9293C27.8373 23.2312 28.5742 23.8875 28.6979 24.885C28.7111 25.0762 28.7111 25.3912 28.7111 25.8693H26.9336C26.9354 25.545 26.9129 25.2206 26.8661 24.8981L26.6054 24.3506C26.3729 24.0356 25.7992 23.8575 24.8823 23.79C24.2935 23.7487 23.2548 23.7225 21.7642 23.7225C20.7948 23.6962 19.8235 23.7543 18.8635 23.9006C18.1379 24.0506 17.6729 24.4331 17.4685 25.0762C17.3598 25.4043 17.2904 26.3887 17.2773 28.0312C17.2904 29.3306 17.3054 30.0956 17.3316 30.3281C17.3729 30.9019 17.5098 31.3537 17.7685 31.6556C18.076 31.9912 18.4941 32.2031 18.9442 32.2575C19.6135 32.3812 20.9129 32.4487 22.8423 32.4487C23.6598 32.4637 24.4773 32.4225 25.291 32.325C25.7054 32.2912 26.1048 32.1544 26.4536 31.9275C26.7948 31.6406 26.9729 30.9281 26.9729 29.8069C26.9729 29.6569 26.9598 29.4375 26.9448 29.1375H21.8429V28.1119" fill="#333333"></path><path d="M30.8056 33.3493V22.8174H38.4519C39.875 22.8174 40.9419 22.9674 41.6656 23.2824C42.2394 23.4961 42.6988 23.9368 42.9369 24.4993C43.1019 24.9268 43.1769 25.3824 43.1563 25.8399C43.1563 26.9893 42.8413 27.7543 42.2131 28.1237C41.8156 28.3562 41.2137 28.5062 40.3812 28.6018V28.6149C41.0319 28.6074 41.6694 28.793 42.2131 29.1474C42.5506 29.378 42.7869 29.7305 42.8694 30.1318L42.9238 30.6512V33.3455H41.1312V30.938C41.135 30.6455 41.0881 30.353 40.9944 30.0755C40.6662 29.3762 39.695 29.0499 38.0937 29.0912H32.6093V33.3455H30.8037M32.5962 28.0655H37.835C38.9975 28.0655 39.86 27.9699 40.3794 27.7505C41.0225 27.4899 41.3506 26.9855 41.3506 26.2186C41.3562 25.8436 41.3394 25.4686 41.2962 25.0974C41.2006 24.4674 40.7637 24.0718 39.9556 23.9349C39.4625 23.8599 38.9637 23.8224 38.465 23.8261H32.5981V28.0655H32.5962Z" fill="#333333"></path><path d="M52.223 22.7099C53.3442 22.7099 54.1917 22.738 54.8086 22.7774C55.3505 22.8149 55.8867 22.9068 56.408 23.0511C57.7205 23.4205 58.5136 24.2549 58.7742 25.5674C58.8624 26.2105 58.8998 26.8611 58.883 27.5099C58.883 29.1787 58.8417 30.2324 58.7461 30.6562C58.6186 31.8393 57.7486 32.8105 56.5842 33.0637C55.7461 33.2943 54.8817 33.418 54.0136 33.433C53.4661 33.4612 52.8098 33.4612 52.0298 33.4612C50.7023 33.4612 49.7329 33.433 49.1292 33.3787C48.5667 33.343 48.0098 33.238 47.4736 33.0637C46.4198 32.7355 45.7504 32.1337 45.4767 31.258C45.2854 30.6843 45.1898 29.8499 45.1748 28.7418V27.2774C45.1636 26.7018 45.2011 26.1243 45.2836 25.5543C45.3886 24.958 45.6529 24.3993 46.0486 23.9399C46.4873 23.5068 47.0367 23.1993 47.6367 23.0511C48.3942 22.8674 49.1686 22.7661 49.9486 22.7493C50.5917 22.7211 51.3305 22.708 52.2192 22.708M51.8367 23.7336C50.8242 23.7336 50.1004 23.7468 49.6354 23.7749C49.2379 23.7974 48.8442 23.8574 48.4598 23.953C47.8786 24.0861 47.4079 24.5099 47.2148 25.0743C47.0667 25.4961 46.9936 25.9405 46.9954 26.3868V28.0687C46.9954 29.3962 47.0236 30.1612 47.0498 30.4068C47.0892 30.838 47.2411 31.2543 47.4867 31.6105C47.7323 31.9068 48.0679 32.113 48.4448 32.1993C48.9773 32.3287 49.5229 32.398 50.0723 32.4037C50.5917 32.4168 51.2348 32.4318 52.028 32.4318C53.6967 32.4318 54.7767 32.3774 55.2548 32.2949C55.6317 32.2368 55.9917 32.0962 56.3086 31.8843C56.5711 31.6818 56.7661 31.4062 56.8692 31.0912C57.0136 30.6637 57.083 30.2155 57.0736 29.7637L57.0605 28.0687C57.0605 26.7693 57.0473 25.9761 57.0061 25.7305C56.9723 25.2974 56.8205 24.8811 56.5692 24.5268C56.3161 24.2324 55.9767 24.0261 55.598 23.938C55.0561 23.8086 54.5011 23.7411 53.9423 23.7336H51.8348" fill="#333333"></path><path d="M72.3831 22.8193H74.1887V30.1918C74.1887 31.0805 74.0387 31.7105 73.7518 32.1062C73.3281 32.6949 72.535 33.0905 71.3987 33.2818C70.7687 33.3905 69.6062 33.4449 67.9393 33.4449C66.7487 33.4449 65.8749 33.4318 65.3124 33.3905C64.8193 33.3718 64.3281 33.3043 63.8481 33.1862C62.9181 32.9668 62.2749 32.6124 61.9187 32.1324C61.6168 31.7218 61.4668 31.0787 61.4668 30.1899V22.8174H63.2574V30.1899C63.2574 30.9699 63.3662 31.4893 63.5987 31.7349C63.8856 32.0499 64.4199 32.2543 65.2131 32.3499C66.0081 32.4249 66.8068 32.4568 67.6074 32.4455C69.3306 32.4455 70.4931 32.378 71.1081 32.2412C71.6818 32.1043 72.0512 31.8174 72.2293 31.3243C72.34 30.9568 72.3868 30.5724 72.3662 30.1899V22.8174" fill="#333333"></path><path d="M76.7891 33.3493V22.8174H83.5185C84.2703 22.8174 84.8047 22.8174 85.1328 22.8305C85.7703 22.8493 86.4041 22.9411 87.021 23.1043C87.4503 23.2336 87.8366 23.4755 88.1422 23.8036C88.5941 24.2968 88.8266 25.0486 88.8266 26.048C88.8266 26.9368 88.6485 27.608 88.2941 28.0449C87.8422 28.6055 87.1447 28.9618 86.1735 29.0987C85.8453 29.153 84.8741 29.1812 83.2335 29.1943H78.5984V33.3249H76.7928M78.5984 28.1968H82.8922C84.3153 28.1968 85.2716 28.1424 85.7647 28.0055C86.2635 27.9249 86.6872 27.6024 86.8991 27.143C87.0078 26.8411 87.0547 26.5205 87.036 26.1999C87.036 25.448 86.9685 24.9136 86.8035 24.6005C86.6253 24.2311 86.2016 23.9986 85.5585 23.9011C85.2978 23.8599 84.6153 23.8468 83.4791 23.8336H78.6116V28.1968H78.5984Z" fill="#333333"></path><path d="M0.264439 20.4663C0.264439 20.4663 0.866315 23.6538 4.2582 28.315C4.2582 28.315 7.97822 33.5801 4.50383 37.4238C4.0257 38.0126 3.02632 39.1338 3.02632 39.1338C4.95383 37.9395 6.67509 36.4432 8.12634 34.7032C8.12634 34.7032 11.7095 29.5882 8.52384 24.9513C8.52384 24.9513 5.11883 19.9188 4.74945 17.5938C4.74945 17.5938 2.98507 10.1256 5.80321 6.13184C5.80321 6.13184 -1.45869 13.7912 0.264439 20.4663Z" fill="#333333"></path><mask id="mask0_157_691" style="mask-type:luminance" maskUnits="userSpaceOnUse" x="0" y="6" width="10" height="34"><path d="M0.264439 20.4672C0.264439 20.4672 0.866315 23.6547 4.2582 28.316C4.2582 28.316 7.97822 33.581 4.50383 37.4248C4.0257 38.0136 3.02632 39.1348 3.02632 39.1348C4.95383 37.9404 6.67509 36.4442 8.12634 34.7042C8.12634 34.7042 11.7095 29.5891 8.52384 24.9523C8.52384 24.9523 5.11883 19.9197 4.74945 17.5947C4.74945 17.5947 2.98507 10.1266 5.80321 6.13281C5.80321 6.13281 -1.45869 13.7922 0.264439 20.4672Z" fill="white"></path></mask><g mask="url(#mask0_157_691)"><path d="M7.63069 0.0442711L-16.7217 16.3652L2.62338 45.2298L26.9758 28.9089L7.63069 0.0442711Z" fill="#333333"></path></g><path d="M9.12959 3.00098C-0.731067 10.1129 5.45083 17.4029 5.46395 17.4029C10.114 23.2285 9.92272 26.7029 9.92272 26.7029C10.1271 33.1848 2.93457 39.2167 2.93457 39.2167C10.4702 34.3755 12.904 27.1398 12.904 27.1398C15.1746 21.6423 11.4958 16.5123 11.4958 16.5123C10.2452 14.7498 9.16334 12.871 8.26896 10.9041C6.62646 6.21474 9.12959 3.00098 9.12959 3.00098Z" fill="#333333"></path><mask id="mask1_157_691" style="mask-type:luminance" maskUnits="userSpaceOnUse" x="2" y="3" width="12" height="37"><path d="M9.13154 3C-0.729114 10.1119 5.45278 17.4019 5.46591 17.4019C10.1159 23.2276 9.92467 26.702 9.92467 26.702C10.129 33.1839 2.93652 39.2158 2.93652 39.2158C10.4722 34.3745 12.9059 27.1388 12.9059 27.1388C15.1766 21.6413 11.4978 16.5113 11.4978 16.5113C10.2472 14.7488 9.16529 12.87 8.27092 10.9032C6.62841 6.21376 9.13154 3 9.13154 3Z" fill="white"></path></mask><g mask="url(#mask1_157_691)"><path d="M10.5189 -4.2384L-17.2119 13.6055L3.92639 46.456L31.6572 28.6122L10.5189 -4.2384Z" fill="#333333"></path></g></svg>