<?xml version="1.0" encoding="UTF-8"?> <svg xmlns="http://www.w3.org/2000/svg" width="90" height="43" viewBox="0 0 90 43" fill="none"><path d="M44.9464 13.4915C46.5683 12.899 47.6895 11.7496 47.6895 9.92902C47.6895 7.11277 45.117 5.90527 41.8489 5.90527H38.1289V23.4384H42.9908C46.6695 23.4384 49.8608 21.9478 49.8608 18.5671C49.8608 15.8953 47.8677 14.0615 44.9464 13.4934M42.7583 22.4578H40.7014V6.8859H42.0514C44.4702 6.8859 45.2802 8.06152 45.2802 9.82965C45.2802 10.124 45.477 13.0171 43.0995 13.5421C44.0802 13.7784 44.9895 14.2453 45.7489 14.9071C46.7052 15.7715 47.2189 17.024 47.1458 18.3121C47.1458 20.7646 45.7958 22.4559 42.7602 22.4559" fill="#333333"></path><path d="M1.22063 22.8512C2.47688 23.4475 3.85312 23.7512 5.24437 23.7381C7.51125 23.7381 11.505 22.9244 11.505 18.9475C11.505 16.1612 9.49125 14.5956 6.17438 12.3456C4.64062 11.2562 2.55 10.1537 2.55 8.36123C2.55 6.87061 3.93 5.97811 5.83687 5.97811C7.1775 6.00248 8.48437 6.39998 9.61125 7.12561L8.66625 5.47748C7.77563 5.13811 6.82313 4.97498 5.86688 5.00311C3.33375 5.00311 0.375 6.07373 0.375 9.09061C0.375 11.4775 2.25187 12.8256 5.36812 15.0587C6.81375 16.0881 9.08625 17.7175 9.08625 19.7181C9.08625 21.595 7.62 22.7631 5.25937 22.7631C3.31687 22.7106 1.455 21.9756 0 20.6875L1.22063 22.8512Z" fill="#333333"></path><path d="M24.0395 23.7384C19.3464 23.7384 15.707 19.9959 15.707 14.6709C15.707 9.34594 19.3483 5.60156 24.0395 5.60156C28.7308 5.60156 32.3608 9.47344 32.3608 14.6691C32.3608 19.8647 28.7308 23.7366 24.0395 23.7366M29.7864 14.6691C29.7864 9.92156 27.4839 6.57844 24.0377 6.57844C20.5914 6.57844 18.2908 9.92344 18.2908 14.6691C18.2908 19.4147 20.5933 22.7597 24.0395 22.7597C27.4858 22.7597 29.7864 19.4409 29.7864 14.6691Z" fill="#333333"></path><path d="M85.1888 18.289H78.4182L76.3088 23.4359H75.3057L82.6538 5.51465L90 23.4359H87.2982L85.1888 18.289ZM78.8194 17.3121H84.7894L81.8044 10.0165L78.8194 17.3121Z" fill="#333333"></path><path d="M67.7842 5.90918V13.1111H58.3811V5.90918H55.8086V23.4386H58.3811V14.0879H67.7842V23.4386H70.3567V5.90918H67.7842Z" fill="#333333"></path><path d="M27.8756 37.5758H26.835V32.2471H29.3868C30.5962 32.2471 31.2037 32.8321 31.2037 33.7583V34.0471C31.2131 34.7408 30.7256 35.3427 30.045 35.4796L31.4137 37.5777H30.2606L28.9725 35.5696H27.8775V37.5758H27.8756ZM27.8756 34.7671H29.1562C29.835 34.7671 30.165 34.4783 30.165 34.0227V33.8071C30.165 33.3271 29.8837 33.0702 29.1975 33.0702H27.8775V34.7671H27.8756Z" fill="#333333"></path><path d="M37.821 32.2471V33.1114H34.8229V34.4633H37.1591V35.2789H34.8229V36.7114H37.821V37.5758H33.8066V32.2471H37.821Z" fill="#333333"></path><path d="M43.2469 36.4633H40.8862L40.47 37.5752H39.4219L41.5106 32.207H42.6619L44.7506 37.5752H43.6631L43.2469 36.4633ZM41.1825 35.6795H42.9487L42.0694 33.3433H42.0525L41.1825 35.6795Z" fill="#333333"></path><path d="M48.0173 32.2471V36.6721H50.6816V37.5758H46.9785V32.2471H48.0173Z" fill="#333333"></path><path d="M56.4195 32.2471V33.1433H54.612V37.5758H53.5714V33.1433H51.7695V32.2471H56.4195Z" fill="#333333"></path><path d="M59.2355 32.2471L60.6436 34.6471L62.0349 32.2471H63.1636L61.1311 35.5358V37.5777H60.0905V35.5358L58.0674 32.2471H59.2355Z" fill="#333333"></path></svg> 